<?xml version="1.0" encoding="utf-8"?>
<!-- Generator: Adobe Illustrator 24.2.3, SVG Export Plug-In . SVG Version: 6.00 Build 0)  -->
<svg version="1.1" id="Capa_1" xmlns="http://www.w3.org/2000/svg" xmlns:xlink="http://www.w3.org/1999/xlink" x="0px" y="0px"
	 viewBox="0 0 431.7 130" style="enable-background:new 0 0 431.7 130;" xml:space="preserve">
<style type="text/css">
	.st0{fill:#FFFFFF;stroke:#FFFFFF;stroke-miterlimit:10;}
	.st1{fill:#FFFFFF;}
	.st2{fill:none;stroke:#FFFFFF;stroke-width:0.75;stroke-miterlimit:10;}
	.st3{font-family:'Hestina';}
	.st4{font-size:84px;}
</style>
<g id="Capa_1_1_">
	<g>
		<path class="st0" d="M88.1,123.9"/>
		<g transform="translate(2.201 1.975)">
			<path class="st0" d="M29.1,96.2"/>
			<g transform="translate(3.906)">
				<path class="st1" d="M21.8,29.3c0.4-3.1,0.3-6.2-0.2-9.2c-0.2-1.6-0.5-3.2-0.6-4.8c-0.2-1.4-0.2-2.9,0.1-4.3
					c0.7-2.1,3.1-0.7,4.5-0.1c1.2,0.6,2.4,1.3,3.5,2.1c2,1.5,6.2,4.7,4.2,7.5c0.2,0.1,0.5,0.1,0.7,0.2c-0.1-4.2,6.6-3.2,9.1-2.7
					c0.5,0.1,0.7-0.6,0.2-0.7c-3-0.6-10.2-1.5-10.1,3.4c0,0.2,0.2,0.4,0.4,0.4c0.1,0,0.2-0.1,0.3-0.2c2-2.8-1.2-5.9-3.2-7.6
					c-1.3-1.1-2.6-2-4.1-2.7C25.4,10,23.5,8.8,22.1,9c-2.8,0.4-1.9,5.4-1.7,7.2c0.5,4.3,1.3,8.5,0.7,12.9
					C21,29.6,21.7,29.8,21.8,29.3z"/>
			</g>
			<g transform="translate(0 16.793)">
				<path class="st1" d="M27.6,9.1c-6.6,7.6-9,18-6.5,27.8c0.1,0.2,0.3,0.3,0.5,0.2s0.3-0.3,0.2-0.4c-2.4-9.5-0.1-19.6,6.3-27
					C28.4,9.3,27.9,8.7,27.6,9.1z"/>
			</g>
			<g transform="translate(1.256 39.989)">
				<path class="st1" d="M20.8,13.6c0.4-1.4,0.9-2.8,1.5-4.2C22.4,9.3,22.2,9.1,22,9l0,0c-0.2-0.1-0.4,0.1-0.5,0.3
					c-0.6,1.4-1,2.7-1.5,4.2c0,0.2,0.1,0.4,0.3,0.4C20.6,13.9,20.8,13.8,20.8,13.6z"/>
			</g>
			<g transform="translate(3.448 40.351)">
				<path class="st1" d="M20.1,9.5c0.6,4,1.3,8,3,11.7c0.8,1.7,1.8,3.3,3.1,4.8c1.4,1.5,2.6,3.2,3.5,5c0.2-0.1,0.4-0.3,0.7-0.4
					c-0.5-1.1-0.8-2.3-0.6-3.5c0-0.5-0.7-0.5-0.8,0c-0.2,1.3,0.1,2.7,0.7,3.8c0.2,0.4,0.8,0.1,0.7-0.4c-0.8-1.6-1.8-3.1-3-4.4
					c-1.4-1.5-2.5-3.3-3.5-5.1c-1.8-3.7-2.4-7.8-3-11.9C20.8,8.8,20,9,20.1,9.5z"/>
			</g>
			<g transform="translate(11.936 57.239)">
				<path class="st1" d="M21,10.5c-0.1-0.7,0-0.8,0.3-0.3l0.4,0.5c0.3,0.3,0.5,0.6,0.8,0.9c0.6,0.7,1.2,1.3,1.8,2
					c1.2,1.3,2.3,2.6,3.5,4c0.1,0.1,0.4,0.1,0.5,0c0,0,0,0,0.1-0.1c1.5-2,3.8,0.5,4.8,1.6c1.3,1.3,2.3,2.8,2.8,4.6
					c0.1,0.2,0.3,0.3,0.5,0.3c0.1,0,0.2-0.1,0.2-0.2c1.2-2.4,2.3-5.6,4.9-6.8c0.4-0.2,0.1-0.8-0.4-0.7c-2.8,1.2-3.9,4.6-5.2,7.1
					l0.7,0.1c-0.8-2.4-2.3-4.5-4.2-6.1c-1.3-1.3-3.5-2-4.8-0.3c0.2,0,0.4-0.1,0.6-0.1c-1.9-2.2-3.9-4.4-5.8-6.5
					C22,10,21.4,8.8,20.6,9.2c-0.8,0.3-0.5,1.2-0.3,1.8C20.5,11.3,21.2,10.9,21,10.5L21,10.5z"/>
			</g>
			<g transform="translate(16.174 25.227)">
				<path class="st1" d="M20.1,9.8c0.7-0.6,1.6-0.9,2.5-0.8c1,0.1,1.9,0.5,2.5,1.3c0.6,0.7,1,1.6,1.1,2.5s-0.1,1.8-0.5,2.6
					c-0.1-0.8-0.4-1.6-0.7-2.3c-0.3-0.7-0.6-1.3-1.1-1.8C23.1,10.2,21.6,9.7,20.1,9.8z"/>
			</g>
			<g transform="translate(18.561 28.089)">
				<path class="st1" d="M22.8,9.6c-0.4-0.2-0.8-0.3-1.3-0.4c-0.2,0-0.5,0.1-0.6,0.3s-0.2,0.4-0.3,0.6c-0.2,0.4-0.2,0.9,0,1.3
					c0.2,0.4,0.5,0.6,0.9,0.7c0.8,0.1,1.2-0.8,1.2-1.5c0-0.4-0.1-0.7-0.3-1c-0.2-0.3-0.6-0.5-1-0.5c-1.8,0.1-1.6,3.3,0.2,3.3
					c0.4,0,0.8-0.2,1-0.5s0.3-0.7,0.2-1.1c0.1-0.7-0.2-1.3-0.8-1.7c-0.8-0.3-1.6,0.5-1.8,1.2c-0.2,0.4-0.2,0.8,0,1.2
					s0.5,0.6,0.8,0.8c0.2,0.1,0.4,0.1,0.6,0s0.3-0.3,0.3-0.5c-0.1-0.2-0.3-0.3-0.5-0.3c-0.1,0,0.1,0,0,0h-0.1c-0.1,0,0.1,0,0,0
					c0,0,0,0-0.1,0s0,0,0,0s0,0-0.1,0c0,0-0.1-0.1,0,0c0,0,0,0-0.1-0.1c0,0-0.1-0.1,0,0c0,0,0,0,0-0.1v-0.1c0,0,0,0.1,0,0
					s-0.1-0.3,0-0.4c0-0.1,0,0,0,0v-0.1c0-0.1,0-0.1,0.1-0.2c0-0.1,0,0,0,0v-0.1c0-0.1,0.1-0.1,0.1-0.2c0.1-0.2,0.3-0.3,0.5-0.3
					c0.1,0-0.1,0,0,0h0.1l0,0c0,0,0.1,0,0,0s0.1,0.1,0.1,0s0.1,0.1,0,0L22,10c0,0,0,0,0,0.1c0-0.1,0,0,0,0c0,0.1,0.1,0.2,0.1,0.3
					s0-0.1,0,0c0,0,0,0,0,0.1c0,0,0,0.1,0,0.2c0,0.1,0,0.3,0,0.4v0.1v0.1c0,0.1,0,0.1,0,0.2c0,0.1,0,0,0,0s0,0,0,0.1s0,0,0,0
					s-0.1,0.1,0,0c0,0,0,0-0.1,0s0.1,0,0,0c0,0,0,0-0.1,0s0.1,0,0,0h-0.1c0,0-0.1,0,0,0c-0.1,0-0.1,0-0.2,0l0,0h-0.1l0,0
					c0,0-0.1,0-0.1-0.1c-0.1-0.1-0.1-0.2-0.2-0.3v-0.1V11c0-0.1,0-0.1,0-0.2c0,0.1,0,0,0,0v-0.1c0-0.1,0-0.2,0-0.2
					c0-0.2,0.1-0.4,0.3-0.6l0,0h0.1c0.1,0,0,0,0,0h0.1c0.1,0,0,0,0,0h0.1c0.1,0,0,0,0,0h0.1H22c0,0,0.1,0.1,0,0l0,0c0.1,0.1,0,0,0,0
					s0.1,0.1,0.1,0.2c0-0.1,0,0,0,0v0.1c0,0.1,0,0.1,0,0.2c0-0.1,0,0.1,0,0.1v0.2v0.1l0,0c0,0,0,0,0,0.1s0,0.1,0,0.2
					c0,0.1,0-0.1,0,0c0,0,0,0,0,0.1c0,0,0,0,0,0.1c0-0.1,0,0,0,0s-0.1,0.1,0,0H22c0.1,0,0,0,0,0c-0.1,0,0,0,0,0l0,0h-0.1h-0.1l0,0
					l0,0c0,0,0,0-0.1-0.1l0,0v-0.1c0,0.1,0,0,0,0c0-0.1,0-0.3,0-0.4c0-0.2,0.1-0.3,0.2-0.5v-0.1c0,0.1,0,0,0,0l0,0l0,0l0,0
					c0.1,0-0.1,0,0.1,0h0.1c0.1,0,0.2,0,0.3,0.1c0.2,0,0.3,0.1,0.5,0.2c0.2,0.1,0.4,0,0.5-0.1C23.1,10,23,9.7,22.8,9.6L22.8,9.6z"/>
			</g>
			<g transform="translate(23.088 8.415)">
				<path class="st1" d="M24.6,9.7c1.6,0.7,0.9,3.5,0.8,4.8c-0.2,1.5-0.3,3-0.1,4.5c0.2,1.3,0.8,2.6,1.7,3.6
					c0.5,0.6,1.2,1.1,1.7,1.7c0.8,1-0.1,1.6-0.8,2.4c-0.9,1-1.6,2.2-1.8,3.5c-0.3,1.5-0.1,2.9-0.3,4.4c-0.3,3.6-3,6.1-5.7,8.3
					c-0.4,0.3,0.2,0.8,0.5,0.5c2.5-2.1,5.2-4.5,5.8-7.9c0.3-1.8,0-3.7,0.4-5.5c0.3-1,0.8-2,1.6-2.8c0.6-0.6,1.1-1.2,1.4-2
					c0.4-1.1-1.1-2-1.8-2.7c-1.6-1.6-2.4-3.8-2.2-6c0.1-2.1,1.6-6.5-1.1-7.6C24.4,8.8,24.2,9.6,24.6,9.7z"/>
			</g>
			<g transform="translate(17.935 42.106)">
				<path class="st1" d="M25.8,9.9c2.2-0.4,4.4-0.2,6.5,0.4c2.1,0.8,4.4,3.6,3,5.9c-1.3,2.1-4.4,2.2-6.5,2.2
					c-2.2,0.1-4.6-0.3-5.9-2.3c-1.3-2.1-1.1-4.7-2-6.9c-0.2-0.4-0.9-0.3-0.7,0.2c0.9,2.3,0.8,5.1,2.2,7.2c1.4,2.1,3.9,2.5,6.3,2.5
					c2.4-0.1,5.5-0.2,7-2.3c1.6-2.1,0.4-5-1.5-6.4c-2.4-1.8-5.6-1.7-8.4-1.4C25.3,9.2,25.3,10,25.8,9.9z"/>
			</g>
			<g transform="translate(3.93 1.628)">
				<path class="st1" d="M23.6,24.2c-1.4,0.4-1.3-1.6-1.1-2.3c0.1-0.5,0.3-0.9,0.3-1.4c0.1-1,0-2-0.4-3c-0.6-1.9-2.8-5.5-1-7.2
					c1-1,2.7-0.3,3.8,0.1c1.4,0.6,2.7,1.2,3.9,1.9c1.2,0.5,2.3,1.3,3.2,2.3c1.1,1.4,0.5,3-0.1,4.5c-0.2,0.4,0.5,0.6,0.7,0.3
					c0.4-0.6,0.9-1.1,1.6-1.3c-0.1-0.2-0.2-0.5-0.3-0.7c-1.3,0.7-2.1,2-2.2,3.5c0,0.4,0.5,0.5,0.7,0.2c1.8-2.8,5-4.5,8.3-4.3
					c0.5,0,0.5-0.7,0-0.8c-3.6-0.2-7,1.6-9,4.7c0.2,0.1,0.5,0.1,0.7,0.2c0.1-1.2,0.8-2.2,1.8-2.9c0.3-0.2,0.1-0.8-0.3-0.7
					c-0.8,0.3-1.5,0.9-2,1.6c0.2,0.1,0.5,0.2,0.7,0.3c0.6-1.2,0.9-2.5,0.7-3.8c-0.3-1-1-1.9-1.9-2.5c-1.2-0.8-2.5-1.6-3.8-2.2
					c-1.2-0.7-2.5-1.2-3.8-1.6c-1-0.3-2-0.2-2.9,0.3c-0.8,0.7-1.2,1.7-1.1,2.8c0.1,2.6,1.9,4.7,2,7.2c0.1,1.4-0.8,2.8-0.4,4.1
					c0.2,1,1.2,1.5,2.1,1.3C24.3,24.8,24.1,24.1,23.6,24.2z"/>
			</g>
			<g transform="translate(4.83 0.84)">
				<path class="st1" d="M31.6,21.7c0.7-1.8,0.9-3.7,0.6-5.5c-0.5-1.5-1.4-2.8-2.7-3.6c-1.5-1.1-3-2-4.6-2.7
					c-1.4-0.6-3.2-1.4-4.6-0.4c-0.4,0.3,0,0.9,0.4,0.7c1.3-1,3.3,0.1,4.5,0.7c1.3,0.7,2.6,1.4,3.8,2.3c1.2,0.8,2.1,1.9,2.5,3.3
					c0.3,1.7,0.1,3.5-0.6,5.1c-0.1,0.2,0.1,0.4,0.3,0.5C31.4,22,31.6,21.9,31.6,21.7z"/>
			</g>
			<g transform="translate(18.109 8.813)">
				<path class="st1" d="M20.7,10.4c0.7-0.4,1.5-0.6,2.3-0.6c0.2,0,0.4-0.2,0.4-0.4S23.1,9,22.9,9c-0.9,0-1.8,0.3-2.7,0.7
					C20,9.8,20,10,20.1,10.2l0,0C20.2,10.4,20.5,10.5,20.7,10.4C20.6,10.4,20.7,10.4,20.7,10.4z"/>
			</g>
			<g transform="translate(5.634 12.49)">
				<path class="st1" d="M20.5,9.2c-0.5,1.2-0.4,2.5,0.3,3.6c0.3,0.4,0.8,0.7,1.3,0.8s1-0.3,1.2-0.8c0-0.3-0.2-0.6-0.5-0.5
					c-1.4,0.4-2.4,1.6-2.7,3c-0.1,0.5,0.6,0.7,0.7,0.2c0.2-1.1,1.1-2.1,2.2-2.4l-0.5-0.5c0,0.3-0.5,0.3-0.7,0.2
					c-0.3-0.2-0.6-0.4-0.7-0.8c-0.3-0.8-0.3-1.8,0.1-2.6C21.4,9,20.7,8.8,20.5,9.2z"/>
			</g>
			<g transform="translate(0.654 27.963)">
				<path class="st1" d="M20.9,9.3c0.3,4.7-1.7,9.4-0.4,14.1c0.1,0.2,0.3,0.3,0.5,0.3s0.3-0.2,0.3-0.4c0-0.8,0-1.8,0.8-2.3
					s1.3,0.3,1.5,1c0.2,1.4,0.3,2.8,0.3,4.2c0,0.5,0.8,0.5,0.8,0c-0.1-1.3-0.1-2.7-0.2-4c0-0.8-0.3-1.5-0.9-1.9s-1.4-0.3-2,0.2
					c-0.7,0.8-1,1.8-0.9,2.8c0.3,0,0.5-0.1,0.7-0.1C20,18.6,22,14,21.7,9.3C21.6,8.9,20.9,8.9,20.9,9.3z"/>
			</g>
			<g transform="translate(1.549 17.865)">
				<path class="st1" d="M21.4,30.7c-0.8-1.5-0.5-3.8-0.5-5.5c0-1.9,0.2-3.9,0.5-5.8c0.4-1.8,1-3.6,1.9-5.2c0.8-1.5,1.5-3.1,1.9-4.7
					c0.1-0.5-0.6-0.7-0.7-0.2c-0.4,2.1-1.5,3.8-2.4,5.7c-0.8,1.7-1.3,3.5-1.6,5.3c-0.3,1.9-0.4,3.7-0.4,5.6c0,1.7-0.2,3.6,0.6,5.1
					C20.9,31.5,21.6,31.1,21.4,30.7z"/>
			</g>
			<g transform="translate(4.363 44.396)">
				<path class="st1" d="M20.1,9.4c1.4,3.3,1.3,7.1,3.5,10c0.8,1.1,1.9,2,3.3,2.4c0.7,0.2,2.4,0.1,1.8-1.1c-0.1-0.1-0.3-0.2-0.4-0.2
					c-0.8,0.2-1.3,0.8-1.3,1.6c-0.1,1.2,0.8,2,1.4,2.9c0.2,0.2,0.7,0.9,0.5,1.2c-0.2,0.1-0.3,0.1-0.5,0.2c0-0.2-0.1-0.3-0.1-0.5
					c-0.2-0.6-0.4-1.1-0.6-1.6c-0.5-1.2-1.2-2.2-2-3.2c-0.3-0.4-0.8,0.2-0.5,0.5c1.1,1.2,1.8,2.6,2.3,4.2c0.2,0.7,0.5,2,1.5,1.7
					c0.9-0.3,0.7-1.6,0.5-2.3c-0.4-0.9-3-3.6-0.9-4c-0.1-0.1-0.3-0.1-0.4-0.2c0.1,0.3-1.8-0.3-1.8-0.4c-0.5-0.3-1-0.6-1.3-1
					c-0.8-0.9-1.5-1.9-1.9-3.1c-0.9-2.4-1.1-5.1-2.1-7.5C20.7,8.8,19.9,9,20.1,9.4z"/>
			</g>
			<g transform="translate(12.711 55.934)">
				<path class="st1" d="M20.2,9.5c0.8,1.1,1.6,2.2,2.3,3.3c0.4,0.5,0.7,1.1,1,1.7c0.3,0.6,0.6,1.1,1,1.6c0.7,0.8,1.7,1.3,2.7,1.6
					c0.9,0.3,1.9,0.1,2.6-0.6c0.3-0.4-0.2-0.9-0.5-0.5c-0.6,0.7-1.6,0.5-2.3,0.2c-0.5-0.2-0.9-0.4-1.4-0.7c-0.4-0.3-0.8-0.8-1-1.3
					c-1.2-2-2.4-3.9-3.8-5.7C20.5,8.8,19.9,9.1,20.2,9.5z"/>
			</g>
			<g transform="translate(15.7 60.617)">
				<path class="st1" d="M20.2,9.6c1.1,1.3,2.1,2.8,2.7,4.3c0.2,0.4,0.3,0.8,0.5,1.2c0.2,0.3,0.5,0.6,0.9,0.5
					c0.3-0.1,0.5-0.5,0.4-0.8c0-0.1,0-0.2,0-0.3s0.2-0.1,0.3-0.2c0.3-0.2,0.4-0.5,0.3-0.8c-0.1-0.1-0.2-0.3-0.3-0.3
					c-0.1,0-0.1-0.1-0.2-0.1s-0.1-0.1-0.1,0c-0.1-0.2-0.3-0.3-0.5-0.2s-0.3,0.3-0.2,0.4c0,0.2,0.1,0.3,0.3,0.4
					c0.1,0,0.3,0.2,0.4,0.2c0,0,0,0,0-0.1c0.1-0.1,0.1-0.1,0-0.1c0,0-0.1,0-0.1,0.1c-0.1,0.1-0.3,0.2-0.4,0.3S24,14.4,24,14.6
					c0,0.1,0,0.5,0,0.5c0.1,0,0.2-0.1,0.2-0.1l-0.1-0.1c0-0.1-0.1-0.2-0.1-0.3c-0.1-0.2-0.2-0.4-0.3-0.7c-0.7-1.7-1.7-3.4-3-4.8
					C20.4,8.7,19.9,9.3,20.2,9.6z"/>
			</g>
			<g transform="translate(19.624 64.846)">
				<path class="st1" d="M20.7,10.9c0.5-0.5,1-1.2,1.8-1.1c0.6,0.1,1,0.8,1.5,1.2c0.3,0.2,0.6,0.4,0.8,0.7c0.2,0.3,0.3,0.7,0.5,1.1
					c0.3,0.7,0.6,1.4,0.9,2.2s0.6,1.4,0.9,2.2c0.2,0.5,0.4,1.3,0.9,1.6c0.5,0.3,1-0.1,1.1-0.6c0.2-0.7,0.2-1.5,0-2.2
					c-0.2,0.1-0.5,0.1-0.7,0.2c0,0.1-0.2,0-0.3,0C28,16.1,28,16,27.9,15.9c-0.1-0.2-0.2-0.4-0.2-0.6c-0.1-0.4-0.2-0.8-0.4-1.2
					c-0.2-0.7-0.6-1.4-1.2-1.9c-0.3-0.3-0.9,0.2-0.5,0.5c1,0.9,1.1,2.2,1.6,3.4c0.2,0.5,0.6,1,1.2,0.9c0.4,0,0.8-0.4,0.8-0.8
					c0-0.1,0-0.1,0-0.2c-0.1-0.2-0.3-0.3-0.5-0.2s-0.3,0.3-0.2,0.4c0.1,0.4,0.1,0.8,0,1.2c0,0.2,0,0.4-0.1,0.6c0,0.1,0,0.2,0,0.1
					c-0.1,0-0.1-0.1-0.1-0.2c-0.2-0.3-0.4-0.7-0.5-1.1c-0.1-0.3-0.3-0.6-0.4-1c-0.6-1.4-1.1-2.7-1.7-4.1c-0.2-0.5-0.6-1-1.1-1.3
					s-0.8-0.9-1.3-1.1c-1.2-0.6-2.3,0.3-3,1.2C19.9,10.7,20.4,11.2,20.7,10.9z"/>
			</g>
			<g transform="translate(26.574 68.44)">
				<path class="st1" d="M20.3,9.7c0.7,0.5,1.5,0.6,2.3,0.3c0.2-0.1,0.3-0.3,0.2-0.5c-0.1-0.2-0.3-0.3-0.4-0.2
					c-0.1,0-0.2,0.1-0.3,0.1H22c0.1,0,0,0-0.1,0s-0.2,0-0.2,0h-0.1c0,0-0.2,0-0.1,0c-0.2,0-0.3-0.1-0.5-0.1c0,0,0,0-0.1,0l0,0
					l-0.1-0.1c-0.1,0-0.2-0.1-0.2-0.1c-0.2-0.1-0.4,0-0.5,0.1C20,9.3,20.1,9.6,20.3,9.7L20.3,9.7z"/>
			</g>
			<g transform="translate(17.092 41.828)">
				<path class="st1" d="M21.4,9.2C21,8.9,20.5,9,20.3,9.4c-0.1,0.1-0.2,0.3-0.2,0.4c-0.2,0.6,0,1.2,0.5,1.6
					c0.2,0.2,0.5,0.2,0.7,0.5s0.4,0.6,0.5,0.9c0.3,0.6,0.6,1.3,0.8,2c0.1,0.2,0.3,0.3,0.5,0.2s0.3-0.3,0.2-0.4c-0.3-1-0.7-2-1.3-3
					c-0.1-0.2-0.3-0.4-0.5-0.5s-0.4-0.2-0.5-0.3c-0.1-0.2-0.2-0.3-0.1-0.5c0-0.1,0-0.2,0-0.4V9.8c0-0.1,0.1,0.1,0,0
					c0.1,0.1,0.4,0.1,0.5,0C21.6,9.5,21.6,9.3,21.4,9.2L21.4,9.2z"/>
			</g>
			<g transform="translate(17.931 41.823)">
				<path class="st1" d="M20.6,9.7c1.1-0.2,1.1,1.7,1.2,2.3c0.1,1,0,2,0.2,3c0.3,1.5,1.3,2.8,2.7,3.4c0.4,0.2,0.8-0.5,0.4-0.7
					c-0.8-0.3-1.5-0.9-1.9-1.7c-0.4-0.9-0.6-1.9-0.6-2.9c0-1.4,0-4.5-2.2-4.3C19.9,9.1,20.1,9.8,20.6,9.7z"/>
			</g>
			<g transform="translate(22.89 8.506)">
				<path class="st1" d="M22.2,9.9c1.4-0.7,2.7,0.4,3.1,1.6c0.3,1,0.4,2.1,0.2,3.1c-0.3,1.6-0.1,3.3,0.4,4.8
					c1.1,2.7,3.5,4.5,6.4,4.8c-0.1-0.2-0.1-0.5-0.2-0.7c-2.7,1.9-5.2,4.4-5.9,7.7c-0.5,2.1,0,4.2-1.3,6c-1.4,1.9-3,3.6-4.7,5.3
					c-0.3,0.4,0.2,0.9,0.5,0.5c1.5-1.6,3-3.2,4.4-4.9c1-1.2,1.5-2.8,1.6-4.3c0-2,0.6-3.9,1.6-5.6c1.1-1.6,2.6-3,4.2-4.1
					c0.2-0.1,0.2-0.3,0.1-0.5c-0.1-0.1-0.2-0.2-0.3-0.2c-2.1-0.2-4-1.4-5.1-3.2c-1.2-1.9-1.1-3.8-0.9-5.9c0.1-1.5,0-3.4-1.1-4.5
					C24.4,9,23,8.7,21.9,9.3C21.4,9.5,21.8,10.1,22.2,9.9z"/>
			</g>
			<g transform="translate(32.614 23.243)">
				<path class="st1" d="M20.5,9.7h0.8c0.2,0,0.4-0.2,0.4-0.4c0-0.1,0-0.2-0.1-0.3c-0.1,0-0.2,0-0.3,0h-0.8c-0.2,0-0.4,0.2-0.4,0.4
					c0,0.1,0,0.2,0.1,0.3C20.3,9.7,20.4,9.7,20.5,9.7z"/>
			</g>
			<g transform="translate(22.526 50.82)">
				<path class="st1" d="M20.4,9.7c2.2,0.6,4.4,0.8,6.7,0.7c0.5,0,0.5-0.8,0-0.8c-2.2,0.1-4.3-0.1-6.5-0.6c-0.2,0-0.4,0.1-0.4,0.3
					C20.1,9.5,20.2,9.7,20.4,9.7z"/>
			</g>
			<g transform="translate(23.497 43.89)">
				<path class="st1" d="M22.5,9.3c-0.7-0.1-1.5,0.1-2,0.6c-0.4,0.5-0.5,1.1-0.3,1.7c0.4,1.5,1.3,2.7,2.7,3.4
					c0.7,0.4,1.5,0.5,2.2,0.4c0.8-0.2,1.5-0.8,2-1.5c0.6-0.7,1.1-1.6,1.2-2.6c-0.1-0.8-0.6-1.5-1.4-1.9c-1-0.4-2-0.5-3.1-0.4
					c-1,0.1-1.9,0.2-2.9,0.5c-0.2,0.1-0.3,0.3-0.2,0.5c0.1,0.2,0.3,0.3,0.4,0.2c1.5-0.5,3-0.6,4.5-0.4c0.7,0.1,1.3,0.4,1.7,1
					c0.4,0.7,0,1.4-0.4,2c-0.3,0.7-0.9,1.3-1.5,1.7c-0.5,0.2-1.1,0.2-1.7,0c-1.2-0.5-2.1-1.4-2.6-2.5c-0.2-0.5-0.3-1-0.1-1.5
					c0.3-0.5,1-0.5,1.5-0.5C23,10,23,9.3,22.5,9.3z"/>
			</g>
			<g transform="translate(23.035 44.427)">
				<path class="st1" d="M22,12.4c0-0.3-0.2-0.7-0.5-0.9c-0.2-0.2-0.4-0.4-0.6-0.6c-0.2-0.5,0.1-1,0.5-1.1c0.1,0,0.2,0,0.2-0.1
					c0.2-0.1,0.3-0.3,0.3-0.5c-0.1-0.2-0.3-0.3-0.5-0.3C20.6,9,20,9.8,20.1,10.7c0,0.4,0.2,0.8,0.5,1.1c0.1,0.1,0.3,0.2,0.4,0.3
					c0,0,0.1,0.1,0.1,0.2v0.1c0,0.2,0.2,0.4,0.4,0.4C21.8,12.8,22,12.6,22,12.4z"/>
			</g>
			<g transform="translate(24.035 44.56)">
				<path class="st1" d="M20.8,10.9c0.3-0.3,0.7-0.5,1.1-0.3c0.5,0.1,0.8,0.5,1,1c0.1,0.5,0.1,1.1,0,1.6c-0.1,0.6,0.3,1.1,1,0.9
					c0.2-0.1,0.4-0.3,0.5-0.5c0.1-0.3,0.1-0.7,0-1c0-0.5,0.3-1,0.8-1.2s1-0.1,1.5-0.4c0.4-0.3,0.5-0.9,0.2-1.4
					c-0.4-0.5-1.1-0.8-1.8-0.6c-0.8,0-1.7,0-2.5,0.1c-0.2,0-0.4,0.2-0.4,0.4v0.1c0.1,0.3,0.3,0.6,0.7,0.8c0.2,0.1,0.8,0.3,0.8,0.5
					c-0.1,0.3,0.3,0.6,0.5,0.4l1.3-0.9c0.4-0.3,0-0.9-0.4-0.7l-1.3,0.9c0.2,0.1,0.4,0.3,0.5,0.4c0.1-0.4-0.1-0.9-0.5-1.1
					c-0.3-0.2-0.9-0.3-0.9-0.6c-0.1,0.2-0.2,0.3-0.4,0.5l2-0.1c0.4,0,1.3-0.2,1.6,0.3c0.3,0.5-0.5,0.5-0.8,0.5
					c-0.5,0.1-0.9,0.3-1.3,0.6c-0.3,0.4-0.5,0.8-0.6,1.3c0,0.3,0,0.6,0,0.9c0,0-0.1,0.1,0,0.1s0,0,0-0.1s0.1-0.3,0.1-0.4
					c0.2-1-0.1-2.1-0.9-2.8c-0.8-0.6-2-0.5-2.6,0.3l0,0c-0.1,0.2,0,0.4,0.2,0.5C20.5,11.1,20.7,11.1,20.8,10.9z"/>
			</g>
			<g transform="translate(24.464 45.969)">
				<path class="st1" d="M23.5,10.1c0-0.6-0.7-0.8-1.2-0.9C21.7,9,21.1,9,20.5,9c-0.2,0-0.4,0.2-0.4,0.4s0.2,0.4,0.4,0.4
					c0.5,0,1,0,1.5,0.1c0.2,0,0.5,0.1,0.7,0.2l0,0h0.1c0,0,0.1,0,0.1,0.1l0,0l0,0l0,0l0,0c0,0.2,0.2,0.4,0.4,0.4l0,0
					C23.3,10.4,23.5,10.3,23.5,10.1z"/>
			</g>
			<path class="st2" d="M52.6,60.1c0.2,1,0.4,2,0.5,3c-0.1-1.5-0.1-3.3,1-4.4c0.4,1.1,0.8,2.3,1.1,3.5c-0.5-2-0.5-4.1,0.1-6
				c0.6,0.6,1,1.4,0.9,2.2c-0.1-2.1,1.1-2.6,1.1-4.7c0,0,1.8-3.6,3.6-1.8"/>
			<g transform="translate(28.954 7.099)">
				<path class="st1" d="M20.5,9.9c3-0.2,6.5-0.5,8.9,1.8c1.9,1.8,3.5,5,6.6,4.4c0.2-0.1,0.3-0.3,0.3-0.5v-0.1
					c-0.5-1.1-1.8-0.9-2.8-1.2c-1.4-0.5-2.5-1.6-3-3c-0.2-0.4-0.9-0.3-0.7,0.2c0.4,1.2,1.2,2.2,2.3,2.9c0.5,0.3,1.1,0.6,1.7,0.7
					c0.6,0.1,1.6,0.1,1.9,0.7c0.1-0.2,0.2-0.4,0.2-0.5c-1.7,0.3-3.1-1-4.1-2.1c-0.9-1.2-1.9-2.2-3.1-3.1c-2.5-1.4-5.5-1.3-8.2-1
					C20,9.2,20,9.9,20.5,9.9z"/>
			</g>
			<g transform="translate(28.931 7.109)">
				<path class="st1" d="M20.2,9.8c0.8,1.1,2.5,0.5,3.6,0.3c1.7-0.4,3.7-0.8,5.2,0.5c2,1.7,2.8,5.7,6.1,5.1c0.5-0.1,0.3-0.8-0.2-0.7
					c-1.6,0.3-2.8-1.2-3.5-2.4c-0.6-1.1-1.3-2.1-2.3-2.8c-1.1-0.7-2.4-1-3.6-0.8c-0.7,0.1-1.5,0.2-2.2,0.4c-0.6,0.1-2,0.6-2.5,0
					C20.5,9,19.9,9.4,20.2,9.8z"/>
			</g>
			<g transform="translate(36.151 16.108)">
				<path class="st1" d="M20.7,13c0,0.3-0.4,0.5-0.5,0.8c-0.1,0.2-0.2,0.4-0.1,0.6c0.1,0.4,0.5,0.6,0.9,0.5c0.1,0,0.1,0,0.2-0.1
					c0.5-0.3,0.5-0.9,0.5-1.4c-0.1-0.4,0.1-0.8,0.3-1c0.2-0.2,0.4-0.4,0.7-0.6c2-1.6,4.5-2.4,7-2.2c0.5,0,0.5-0.7,0-0.8
					c-2.2-0.2-4.4,0.3-6.3,1.5c-0.5,0.3-0.9,0.6-1.3,0.9c-0.4,0.3-0.8,0.7-1.1,1.1c-0.1,0.2-0.2,0.4-0.2,0.7c0,0.1,0,0.3,0,0.4
					c0,0,0,0.6,0,0.5s0.3-0.4,0.4-0.5c0.1-0.2,0.2-0.4,0.2-0.6C21.5,12.6,20.7,12.6,20.7,13z"/>
			</g>
		</g>
		<g transform="translate(0 59.819)">
			<g transform="translate(20.992 10.653)">
				<path class="st1" d="M20.4,9.7c0.1-0.1,0.3-0.2,0.5-0.3c0.1,0,0.2,0,0.3,0h0.2h0.1c0-0.1,0.1-0.2,0.1-0.3C21.3,9,21,9,20.7,9.1
					c-0.1,0.1-0.1,0.2-0.1,0.2l0,0c0.1,0.1,0.2,0.1,0.3,0.1c0.2-0.1,0.4-0.1,0.6-0.1c0.1,0,0.2,0,0.2-0.1s0-0.2-0.1-0.2
					c-0.5-0.1-1.1,0-1.4,0.4c-0.1,0.1-0.1,0.2,0,0.2l0,0C20.2,9.7,20.3,9.8,20.4,9.7L20.4,9.7z"/>
			</g>
			<g transform="translate(4.675)">
				<path class="st1" d="M20.2,9.6l20.3,20.2c0.2,0.1,0.4,0.1,0.5,0s0.1-0.4,0-0.5L20.7,9.1c-0.2-0.1-0.4-0.1-0.5,0
					C20.1,9.3,20.1,9.5,20.2,9.6z"/>
			</g>
			<g transform="translate(3.37 2.23)">
				<path class="st1" d="M20.2,9.6c5.7,5.6,11.3,11.2,17,16.8c0.2,0.1,0.4,0.1,0.5,0s0.1-0.4,0-0.5c-5.7-5.6-11.3-11.2-17-16.8
					C20.4,8.8,19.9,9.3,20.2,9.6z"/>
			</g>
			<g transform="translate(0.095)">
				<path class="st1" d="M24.5,9.1l-4.3,4.3c-0.1,0.2-0.1,0.4,0,0.5s0.4,0.1,0.5,0L25,9.6c0.1-0.2,0.1-0.4,0-0.5S24.7,9,24.5,9.1z"
					/>
			</g>
			<g transform="translate(0 4.425)">
				<path class="st1" d="M20.2,9.6c5.3,5.3,10.7,10.7,16,16c0.8,0.8,1.8,2.3,2.8,2.6c0.9,0.2,1.5-0.7,2.3-0.8
					c2.1-0.4,3.5,2.4,3.5,4.1c0,1.6-0.5,3.2-1.3,4.6c-1.6,2.8-3.5,5.3-5.8,7.6c-1.5,1.7-4,4.1-2.6,6.5c1.3,2.2,4.1,1.4,5.7,0.1
					c2.3-2,4.2-4.4,5.7-7c1.7-2.9,3-5.9,3.8-9.2s1.3-6.7-0.1-9.9c-0.2-0.4-0.8-0.1-0.7,0.4c1.3,3.1,0.8,6.6-0.1,9.7
					c-0.7,2.8-1.8,5.4-3.2,7.9c-1.4,2.6-3.3,5-5.4,7.1c-1.1,1.1-3,2.3-4.5,1.2c-2.1-1.5,0-4.1,1.1-5.4c3.2-3.6,7.4-7.6,8-12.7
					c0.3-2.2-0.7-4.3-2.6-5.5c-0.9-0.4-1.8-0.4-2.7,0.1c-0.7,0.3-1,0.7-1.7,0.1c-0.6-0.6-1.2-1.2-1.8-1.8
					c-5.4-5.4-10.8-10.8-16.2-16.2C20.4,8.8,19.9,9.3,20.2,9.6z"/>
			</g>
			<g transform="translate(24.765 18.34)">
				<path class="st1" d="M25.5,10.3C25,9.4,24,8.9,23,9c-1,0.2-1.7,1.4-2.1,2.2c-1.1,2.3-0.9,4.8-0.6,7.2c0,0.5,0.8,0.5,0.8,0
					c-0.4-2-0.3-4,0.2-6c0.3-0.8,0.7-1.6,1.3-2.3c0.3-0.4,0.8-0.5,1.3-0.3c0.4,0.2,0.8,0.5,1,0.8C25.1,11.1,25.7,10.7,25.5,10.3z"/>
			</g>
			<g transform="translate(30.485 25.544)">
				<path class="st1" d="M20.4,9.6c0.8,0.9,1.9,1.5,3,1.7c1.3,0.4,2.6,0.7,3.9,1.1v-0.7c-1.1,0.2-2.3,0.3-3.4,0.2
					c-1.2,0-2.3,0-3.5-0.1c-0.5-0.1-0.5,0.7,0,0.8c1.2,0.1,2.4,0.1,3.6,0.1c1.2,0.1,2.3,0,3.5-0.2c0.2-0.1,0.3-0.3,0.3-0.5
					c0-0.1-0.1-0.2-0.3-0.3l-3.7-1c-1.1-0.2-2.1-0.8-2.9-1.6C20.6,8.7,20.1,9.3,20.4,9.6z"/>
			</g>
			<g transform="translate(18.138 19.333)">
				<path class="st1" d="M20.4,11.9L23,9.2c0.2-0.1,0-0.3-0.2-0.2l-2.7,2.7c-0.1,0.1-0.1,0.2,0,0.2S20.3,12,20.4,11.9z"/>
			</g>
		</g>
		<g transform="translate(24.125 59.819)">
			<g transform="translate(15.616 10.674)">
				<path class="st1" d="M21.7,9.4C21.3,9,20.8,8.9,20.3,9c-0.1,0-0.1,0.1-0.1,0.2c0,0.1,0.1,0.2,0.2,0.1c0.2,0,0.4,0,0.6,0.1
					c0.1,0,0.2,0,0.3-0.1c0-0.1,0-0.2-0.1-0.3c-0.4,0-0.7,0-1,0c0,0.1,0.1,0.2,0.1,0.3c0,0,0,0,0.1,0l0,0c0.1,0,0.1,0,0.2,0
					s0.2,0,0.3,0c0.2,0.1,0.4,0.2,0.5,0.3s0.2,0.1,0.2,0l0,0C21.7,9.6,21.7,9.5,21.7,9.4z"/>
			</g>
			<g transform="translate(12.461)">
				<path class="st1" d="M40.5,9.1L20.2,29.3c-0.1,0.2-0.1,0.4,0,0.5s0.4,0.1,0.5,0L41,9.6c0.1-0.2,0.1-0.4,0-0.5S40.7,9,40.5,9.1z"
					/>
			</g>
			<g transform="translate(17.121 2.23)">
				<path class="st1" d="M37.2,9.1c-5.7,5.6-11.3,11.2-17,16.8c-0.1,0.2-0.1,0.4,0,0.5s0.4,0.1,0.5,0c5.7-5.6,11.3-11.2,17-16.8
					c0.1-0.2,0.1-0.4,0-0.5C37.5,9,37.3,9,37.2,9.1z"/>
			</g>
			<g transform="translate(33.015)">
				<path class="st1" d="M20.2,9.6l4.3,4.3c0.2,0.1,0.4,0.1,0.5,0s0.1-0.4,0-0.5l-4.3-4.3C20.4,8.8,19.9,9.3,20.2,9.6z"/>
			</g>
			<g transform="translate(6.958 4.43)">
				<path class="st1" d="M50.7,9.1L36.4,23.4c-1.1,1.1-2.2,2.2-3.3,3.3c-0.7,0.7-1,0.8-1.7,0.4c-0.5-0.3-1-0.5-1.6-0.5
					c-2-0.1-3.7,2.4-3.9,4.2c-0.7,4.8,3.5,9.4,6.5,12.6c1.1,1,2.1,2.2,2.9,3.5c0.6,0.9,0.7,2,0.3,3c-0.7,1-1.9,1.3-3,0.8
					c-1.4-0.6-2.6-1.6-3.5-2.9c-1-1.2-2-2.4-2.8-3.7c-1.8-2.7-3.2-5.7-4.1-8.8c-1-3.4-1.8-7.3-0.4-10.7c0.2-0.4-0.5-0.8-0.7-0.4
					c-1.2,2.8-1,5.8-0.4,8.7c1.3,5.9,4.1,11.3,8.1,15.7c1.5,1.7,3.8,3.8,6.3,2.6s1.4-4.3,0.1-5.9c-2-2.5-4.4-4.7-6.2-7.4
					c-1.5-2.3-3.3-5.8-1.8-8.5c0.4-1,1.3-1.7,2.4-2c1-0.1,1.3,0.3,2.1,0.7c0.9,0.3,1.4-0.3,2-0.9c5.9-5.8,11.8-11.8,17.6-17.6
					C51.6,9.3,51,8.8,50.7,9.1L50.7,9.1z"/>
			</g>
			<g transform="translate(7.986 18.35)">
				<path class="st1" d="M20.8,10.7c0.5-0.8,1.5-1.3,2.3-0.6c0.6,0.7,1.1,1.5,1.3,2.3c0.5,2,0.5,4,0.2,6c0,0.5,0.7,0.5,0.8,0
					c0.3-2.4,0.5-4.9-0.6-7.2c-0.4-0.8-1.1-2-2.1-2.2c-1-0.1-2,0.4-2.5,1.3C19.9,10.7,20.5,11.1,20.8,10.7z"/>
			</g>
			<g transform="translate(0 25.539)">
				<path class="st1" d="M27,9.1c-0.8,0.8-1.8,1.4-2.9,1.6l-3.7,1c-0.2,0.1-0.3,0.3-0.3,0.5c0,0.1,0.1,0.2,0.3,0.3
					c1.1,0.2,2.3,0.3,3.5,0.2c1.2,0,2.4,0,3.6-0.1c0.5,0,0.5-0.8,0-0.8c-1.2,0.1-2.3,0.1-3.5,0.1c-1.1,0.1-2.3,0-3.4-0.2v0.7
					c1.3-0.3,2.6-0.7,3.9-1.1c1.1-0.3,2.2-0.9,3-1.7C27.8,9.3,27.3,8.7,27,9.1z"/>
			</g>
			<g transform="translate(17.084 19.334)">
				<path class="st1" d="M23,11.7L20.4,9c-0.1-0.1-0.3,0.1-0.2,0.2l2.7,2.7C23,12.1,23.2,11.9,23,11.7z"/>
			</g>
		</g>
		<g transform="translate(16.101 79.372)">
			<path class="st1" d="M23.1,34.2c0.7-2.1,2.2-3.7,3.6-5.4c1.4-1.8,2.9-3.5,4.2-5.3c1.3-1.8,2.1-3.9,2.3-6c0.1-1.1,0.2-2.3,0.1-3.5
				c0-0.6-0.1-1.2-0.1-1.7c0-0.2,0-0.5,0-0.7c0.1-0.3-0.1-0.2-0.4,0.3c-0.6-0.3-1.2-0.7-1.8-1.1c0.7,2.3,0.2,4.9-0.2,7.2
				c-0.4,2.1-1.2,4.1-2.5,5.9c-2.4,3.3-5.5,5.9-7.5,9.4c-0.4,0.7-0.1,1.6,0.6,2.1c0.5,0.2,1,0.2,1.5,0c3.4-2,6-5.1,7.2-8.9
				c0.6-1.8-2.3-2.6-2.9-0.8c-1,3-3.1,5.5-5.8,7.1l2,2.1c2.2-3.8,5.8-6.6,8.1-10.3c1.2-2,2-4.2,2.3-6.6c0.4-2.6,0.8-5.3,0.1-7.9
				c-0.2-0.8-1.1-1.3-1.8-1.1c-2.3,0.6-1.7,3.4-1.6,5.2c0.2,2.5-0.3,5.1-1.7,7.2c-1.4,2-3,4-4.7,5.9c-1.5,1.9-3.1,3.7-3.8,6
				C19.6,35.2,22.5,36,23.1,34.2z"/>
		</g>
		<g transform="translate(32.625 79.218)">
			<path class="st1" d="M20.5,10.1c-0.7,4.1-0.5,8.2,0.8,12.2c1,3.4,2.5,7.4,5.3,9.8c0.7,0.6,1.4,1.1,2,1.6c0.6,0.7,1.2,1.3,1.9,1.9
				c1.1,0.7,2.6,0.4,3.3-0.7c0.2-0.3,0.3-0.7,0.4-1c0.1-1.7-1.7-3.2-2.7-4.4c-1.2-1.5-2.5-3-3.7-4.6c-2.5-3.4-4.7-7.6-3.9-12
				c0.3-1.9-2.6-2.7-2.9-0.8c-0.6,4.1,0.3,8.3,2.6,11.8c1,1.7,2.2,3.3,3.5,4.8c0.7,0.9,1.4,1.8,2.2,2.7c0.3,0.3,0.5,0.7,0.8,1
				c0.2,0.2,0.8,1.3,1,1.3c1-0.3,1.2-0.6,0.6-0.9c-0.2-0.2-0.3-0.4-0.5-0.6c-0.3-0.3-0.6-0.6-0.9-0.8c-0.9-0.6-1.7-1.3-2.5-2.1
				c-1.2-1.6-2.2-3.3-2.8-5.2c-1.8-4.2-2.4-8.8-1.7-13.2C23.8,9,20.9,8.2,20.5,10.1z"/>
		</g>
		<g transform="translate(27.814 72.218)">
			<path class="st1" d="M22.1,11.8c-0.5-0.9-0.9-1.8-1.3-2.6C20.7,9,20.5,8.9,20.3,9s-0.2,0.3-0.1,0.5c0.5,0.9,0.9,1.8,1.3,2.6
				c0.1,0.2,0.3,0.2,0.5,0.1C22.2,12.2,22.2,12,22.1,11.8L22.1,11.8z"/>
		</g>
		<g transform="translate(35.166 66.9)">
			<path class="st1" d="M23.1,9.3c-0.2,0.1-0.5,0.1-0.7,0.2h-0.2l0,0h-0.1c-0.1,0-0.2,0-0.3,0c0,0-0.1,0-0.2,0c0,0-0.1,0,0,0
				c0,0,0,0-0.1,0s-0.2-0.1-0.3-0.1l0,0c0,0,0,0-0.1,0L21,9.3l0,0l-0.1-0.1l-0.1-0.1c-0.2-0.1-0.4-0.1-0.5,0s-0.1,0.4,0,0.5
				c0.7,0.9,2.1,0.7,3,0.4c0.2-0.1,0.3-0.3,0.2-0.5C23.4,9.4,23.2,9.3,23.1,9.3z"/>
		</g>
		<g transform="translate(38.072 64.074)">
			<path class="st1" d="M23.4,9.1c-1.4,1.7-2.6,3.6-3.3,5.7c-0.2,0.5,0.6,0.7,0.7,0.2c0.7-2,1.8-3.8,3.1-5.4
				C24.3,9.3,23.8,8.7,23.4,9.1z"/>
		</g>
		<g transform="translate(29.62 71.254)">
			<path class="st1" d="M20.6,13.9c0.8-0.3,1-1.4,1.3-2.2C22,11,22.4,10.2,23,9.6c0.4-0.3-0.2-0.9-0.5-0.5c-0.6,0.6-1,1.3-1.2,2.1
				c-0.1,0.4-0.2,0.8-0.4,1.1c-0.1,0.3-0.2,0.8-0.5,0.9c-0.2,0.1-0.3,0.3-0.3,0.5C20.1,13.8,20.3,13.9,20.6,13.9
				C20.5,13.9,20.5,13.9,20.6,13.9z"/>
		</g>
		<g transform="translate(28.393 71.903)">
			<path class="st1" d="M22.3,9c-0.1,0.1-0.2,0.1-0.2,0.1L22,9.2l0,0c0,0,0,0-0.1,0c-0.2,0.1-0.3,0.1-0.5,0.1c0.1,0,0,0-0.1,0h-0.1
				c-0.1,0-0.2,0-0.2,0s-0.2,0-0.1,0h-0.1c-0.1,0-0.2,0-0.3-0.1c-0.2,0-0.4,0.1-0.4,0.3s0.1,0.4,0.2,0.4c0.8,0.2,1.6,0.1,2.3-0.3
				c0.2-0.1,0.2-0.3,0.1-0.5C22.7,9,22.5,8.9,22.3,9z"/>
		</g>
		<g transform="translate(31.896 67.616)">
			<path class="st1" d="M20.8,12.9c0.5-1.1,1.4-2.1,2.4-2.8c0.5-0.3,1.2-0.5,1.8-0.3c0.5,0.1,1,0.7,0.7,1.2
				c-0.2,0.4,0.4,0.8,0.7,0.4c0.3-0.7,0.1-1.6-0.5-2c-0.7-0.5-1.6-0.5-2.4-0.2c-1.4,0.7-2.6,1.9-3.3,3.3c-0.1,0.2,0,0.4,0.2,0.5
				C20.5,13.1,20.7,13.1,20.8,12.9z"/>
		</g>
		<g transform="translate(34.886 65.61)">
			<path class="st1" d="M20.2,9.6c1,1.2,2.4,1.9,4,1.9c0.5,0,0.5-0.7,0-0.8c-1.3-0.1-2.6-0.7-3.4-1.7c-0.1-0.2-0.4-0.2-0.5,0
				C20.1,9.2,20,9.5,20.2,9.6L20.2,9.6z"/>
		</g>
		<g transform="translate(35.225 63.385)">
			<path class="st1" d="M20.2,12c0.6,0.6,1.3,1,2,1.2s1.5,0,2.1-0.5c0.5-0.5,1-1,1.4-1.6c0.4-0.7,1-1.1,1.8-1.3
				C28,9.7,28,8.9,27.5,9c-1.5,0.2-2.2,1.5-3.1,2.5c-0.4,0.6-1,0.9-1.7,1c-0.8-0.1-1.5-0.5-2-1.1C20.4,11.1,19.9,11.7,20.2,12z"/>
		</g>
		<g transform="translate(40.611 5.73)">
			<path class="st1" d="M20.9,13.8c-0.3-1.8,1.4-3.2,2.6-4.2c0.1-0.2,0.1-0.4,0-0.5C23.3,9,23.1,9,23,9.1c-0.8,0.6-1.6,1.3-2.2,2.1
				C20.2,12,20,13,20.2,14c0.1,0.2,0.3,0.3,0.5,0.2C20.8,14.2,20.9,14,20.9,13.8z"/>
		</g>
		<g transform="translate(38.576)">
			<path class="st1" d="M20.7,18.9c1.9-1.9,3.9-3.7,5.9-5.4c1-0.9,2-1.7,3.1-2.5s2.7-1.9,3.7-0.4c1.4,2.1,0.4,5.3,0.2,7.6
				c-0.3,2.6-0.1,5.3,0.4,7.9c0.1,0.5,0.8,0.3,0.7-0.2c-0.6-3.2-0.7-6.5-0.1-9.7c0.3-2,0.8-5.5-1.3-6.8c-2.1-1.4-4.8,1.5-6.3,2.8
				c-2.4,2-4.6,4.1-6.8,6.2C19.9,18.7,20.4,19.2,20.7,18.9z"/>
		</g>
		<g transform="translate(39.954 3.412)">
			<path class="st1" d="M20.7,15.4c1.3-0.9,2.4-1.9,3.4-3.1c0.4-0.5,0.7-1.1,1.1-1.7c0.3-0.5,0.8-0.8,1.3-1c0.2-0.1,0.3-0.3,0.3-0.5
				c-0.1-0.2-0.3-0.3-0.5-0.3c-1.3,0.2-1.9,1.6-2.6,2.6c-0.9,1.3-2.1,2.4-3.4,3.2c-0.2,0.1-0.2,0.3-0.1,0.5
				C20.3,15.5,20.5,15.5,20.7,15.4z"/>
		</g>
		<g transform="translate(43.431 2.719)">
			<path class="st1" d="M20.8,12.7c0.9-1.2,1.9-2.2,3.1-3.1c0.2-0.1,0.2-0.3,0.1-0.5C23.9,9,23.7,8.9,23.5,9l0,0
				c-1.3,0.9-2.4,2.1-3.4,3.3c-0.1,0.2,0,0.4,0.1,0.5C20.5,13,20.7,12.9,20.8,12.7z"/>
		</g>
		<g transform="translate(46.237 15.279)">
			<path class="st1" d="M20.5,9.7c0.2,0,0.4-0.2,0.4-0.4S20.7,9,20.5,9s-0.4,0.2-0.4,0.4S20.3,9.7,20.5,9.7z"/>
		</g>
		<g transform="translate(42.533 32.433)">
			<path class="st1" d="M24.3,9.1c-0.6,1.8-1.5,3.4-2.8,4.7c-0.6,0.5-0.9,1.2-1.1,1.9c-0.1,1-0.2,2-0.3,3.1c0,0.3,0.4,0.3,0.4,0
				c0.1-1,0.2-1.9,0.3-2.9c0.1-1,0.8-1.6,1.5-2.3c1.1-1.3,1.9-2.8,2.4-4.3C24.8,9,24.4,8.9,24.3,9.1z"/>
		</g>
		<g transform="translate(39.743 33.237)">
			<path class="st1" d="M20.3,14.3c2.7-1,5.1-2.8,6.9-5C27.3,9.1,27.1,8.9,27,9c-1.8,2.2-4.1,3.9-6.8,4.9C20,14,20.1,14.3,20.3,14.3
				z"/>
		</g>
		<g transform="translate(41.145 0.722)">
			<path class="st1" d="M21,19.3c-0.3-1-0.2-2.1,0.3-3.1c0.6-1,1.4-1.8,2.3-2.5c0.9-0.8,1.8-1.6,2.7-2.5c0.7-0.8,1.7-1.3,2.8-1.4
				c0.5,0,0.5-0.7,0-0.8c-1.2,0-2.3,0.5-3.1,1.4c-1.1,0.9-2.1,1.9-3.1,2.8c-1,0.8-1.8,1.7-2.4,2.9c-0.5,1.1-0.5,2.3-0.3,3.4
				c0.1,0.2,0.3,0.3,0.5,0.2S21,19.4,21,19.3z"/>
		</g>
		<g transform="translate(46.845 1.157)">
			<path class="st1" d="M20.7,11.2c0.7-0.7,1.7-1.3,2.7-1.5c0.9-0.2,1.8,0.1,2.4,0.8c0.3,0.4,0.8-0.2,0.5-0.5c-0.8-0.8-1.9-1.2-3-1
				c-1.2,0.2-2.3,0.8-3.2,1.7C19.9,11,20.4,11.6,20.7,11.2z"/>
		</g>
		<g transform="translate(41.977 6.575)">
			<path class="st1" d="M21,9.2c-0.9,1.4-1.2,3.2-0.7,4.8c0.4,1.5,1.4,3.3,3.2,3.3c0.2,0,0.4-0.2,0.4-0.4c0-0.2-0.2-0.4-0.4-0.4
				c-1.4,0-2.2-1.8-2.5-3c-0.4-1.4-0.1-2.8,0.7-4C21.9,9.1,21.3,8.8,21,9.2z"/>
		</g>
		<g transform="translate(44.879 14.135)">
			<path class="st1" d="M20.7,9.8L20.7,9.8L20.7,9.8c0.1,0,0.1,0,0.2-0.1c0,0,0,0,0.1,0c0,0-0.1,0,0,0h0.2c0,0,0.1,0,0,0l0,0
				c0,0,0,0,0.1,0h0.1h0.1c-0.1,0-0.1,0,0,0s0,0,0,0c0.1,0,0.2,0.1,0.2,0.1l0,0l0,0l0.1,0.1l0,0l0,0l0,0l0.1,0.1v0.1
				c0,0.1,0-0.1,0,0v0.1c0.1,0.2,0.3,0.3,0.5,0.2s0.3-0.3,0.2-0.4c-0.1-0.5-0.5-0.9-0.9-1.1c-0.5-0.2-1-0.2-1.5,0
				C20,9,20,9.2,20.1,9.4l0,0C20.2,9.8,20.5,9.9,20.7,9.8C20.6,9.8,20.7,9.8,20.7,9.8L20.7,9.8z"/>
		</g>
		<g transform="translate(51.493 7.88)">
			<path class="st1" d="M20.4,11.8c0,0.4-0.3,0.8-0.3,1.2s0,0.9,0,1.3c0,0.9,0,1.8,0.1,2.7c0,0.7,0.3,1.4,0.7,2
				c0.3,0.4,0.9,0.5,1.3,0.2l0.1-0.1c0.5-0.6-0.2-1-0.5-1.5c-0.4-0.8-0.6-1.7-0.7-2.6c-0.5-1.8-0.3-3.7,0.4-5.4
				c0.2-0.4-0.4-0.8-0.7-0.4c-0.6,1.2-0.8,2.6-0.7,4c0.1,1.5,0.4,3,0.9,4.4c0.1,0.3,0.2,0.5,0.4,0.7c0,0,0.3,0.3,0.2,0.4
				c-0.1,0.1-0.3-0.2-0.4-0.3c-0.3-0.7-0.5-1.4-0.4-2.1c0-0.8,0-1.5-0.1-2.3c0-0.4,0-0.8,0.1-1.1s0.2-0.6,0.3-1
				C21.2,11.3,20.5,11.3,20.4,11.8z"/>
		</g>
		<g transform="translate(34.832 55.431)">
			<path class="st1" d="M20.1,9.6c0.1,0.5,0.2,0.9,0.3,1.4c0,0.1,0.1,0.2,0.2,0.1c0.1,0,0.2-0.1,0.2-0.2c0-0.6,0-1.1,0.2-1.7
				C21,9.1,21,9,20.8,9c-0.1,0-0.2,0-0.2,0.1l0,0c-0.1,0.6-0.2,1.2-0.2,1.8c0.1,0,0.3,0,0.4,0c-0.2-0.4-0.3-0.8-0.3-1.3
				c0-0.1-0.1-0.2-0.2-0.2l0,0C20.2,9.4,20.1,9.5,20.1,9.6z"/>
		</g>
		<g transform="translate(36.744 50.915)">
			<path class="st1" d="M20.1,13.2c0,0.5,0.1,1.1,0.2,1.6c0,0.2,0.3,0.2,0.4,0c0.3-0.9,0.4-1.8,0.4-2.8c-0.1-0.5-0.1-0.9,0-1.4
				s0.2-0.9,0.4-1.4c0-0.2-0.4-0.3-0.5-0.1c-0.2,0.4-0.3,0.9-0.4,1.4c-0.1,0.4-0.1,0.9,0,1.3c0.1,0.5,0.1,0.9,0,1.4s-0.2,1-0.4,1.4
				h0.4c-0.1-0.5-0.2-1-0.2-1.5C20.5,12.9,20.1,12.9,20.1,13.2z"/>
		</g>
		<g transform="translate(36.186 52.85)">
			<path class="st1" d="M21,11.1c0.1-0.7-0.1-1.5-0.5-2.1c-0.1,0-0.2,0-0.3,0c-0.1,0.1-0.1,0.2-0.1,0.3c0.4,0.5,0.5,1.2,0.5,1.9
				c0,0.1,0,0.2,0.2,0.2C20.8,11.4,21,11.3,21,11.1C21,11.2,21,11.2,21,11.1z"/>
		</g>
		<g transform="translate(38.069 50.161)">
			<path class="st1" d="M20.2,10.3c0.2,0.1,0.2,0.4,0.2,0.6c0,0.3,0.1,0.7,0.1,1s0.4,0.3,0.4,0c-0.1-0.9,0-1.7,0.1-2.6
				c0-0.1,0-0.2-0.1-0.3c-0.1,0-0.2,0-0.2,0.1l0,0c-0.1,0.9-0.2,1.8-0.1,2.7H21c0-0.4-0.1-0.8-0.1-1.2c0-0.3-0.1-0.6-0.4-0.8
				C20.2,9.8,20,10.1,20.2,10.3z"/>
		</g>
		<g transform="translate(38.535 44.112)">
			<path class="st1" d="M20.5,17.8c0.1-1.7,0.4-3.3,0.9-4.9c0.2-0.7,0.5-1.4,1-2c0.6-0.6,1.4-0.7,2.2-0.4c0.1,0.1,0.2,0,0.3-0.1l0,0
				c0.1-0.4,0.1-0.8,0-1.3C24.9,9,24.8,9,24.6,9s-0.2,0.1-0.1,0.3c0.1,0.4,0.1,0.8-0.1,1.1c0.1,0,0.2-0.1,0.3-0.1
				c-0.7-0.3-1.5-0.3-2.1,0c-0.6,0.4-1.1,1-1.3,1.7c-0.7,1.9-1.1,3.8-1.2,5.8c0,0.1,0.1,0.2,0.2,0.2S20.5,17.9,20.5,17.8z"/>
		</g>
		<g transform="translate(36.031 53.039)">
			<path class="st1" d="M20.2,9.3c0.1,0.1,0.1,0.1,0.2,0.2l0.1,0.1l0,0l0,0l0,0c0.1,0.1,0.1,0.1,0.1,0.2c0,0,0,0.1,0.1,0.1V10l0,0
				l0,0c0,0,0,0.1,0.1,0.1c0,0,0.1,0,0.2,0s0.2-0.1,0.1-0.3C21,9.6,20.7,9.3,20.4,9l-0.1-0.1c-0.1,0-0.1,0-0.1,0.1
				C20.1,9.1,20.1,9.3,20.2,9.3z"/>
		</g>
		<g transform="translate(36.528 53.109)">
			<path class="st1" d="M20.1,9.2c0,0.4,0.1,0.7,0.2,1c0.1,0.1,0.2,0.1,0.3,0.1c0.1-0.1,0.1-0.2,0.1-0.3V9.9c0,0,0-0.1,0,0l0,0
				c0-0.1-0.1-0.2-0.1-0.2s0,0,0-0.1s0-0.1,0,0V9.2c0-0.1-0.1-0.2-0.2-0.2C20.2,9,20.1,9.1,20.1,9.2z"/>
		</g>
		<g transform="translate(36.37 51.209)">
			<path class="st1" d="M20.1,11.2c0.2,1.4,0.4,2.7,0.5,4.1c0,0.1,0.1,0.2,0.2,0.2s0.2-0.1,0.2-0.1c0.4-1,0.6-2,0.7-3
				c-0.1-1,0-2.1,0.4-3.1c0.1-0.1,0-0.2-0.1-0.3s-0.2,0-0.3,0.1C21.3,10,21.2,11,21.3,12c0,0.6,0,1.1-0.1,1.7
				c-0.1,0.6-0.3,1.1-0.5,1.6c0.1,0,0.3,0,0.4,0c-0.1-1.4-0.3-2.8-0.5-4.2C20.4,10.9,20.1,11,20.1,11.2z"/>
		</g>
		<g transform="translate(34.823 53.087)">
			<path class="st1" d="M20.1,12c0,0.7,0.2,1.4,0.6,1.9C20.8,14,20.9,14,21,14s0.1-0.1,0.1-0.2c0-0.8,0.1-1.6,0.2-2.4
				c0-0.7,0.1-1.5,0.3-2.2C21.7,9,21.4,8.8,21.3,9c-0.3,0.7-0.4,1.4-0.4,2.2c-0.1,0.8-0.1,1.7-0.2,2.5c0.1,0,0.3-0.1,0.4-0.1
				c-0.3-0.5-0.5-1.1-0.5-1.7C20.5,11.8,20.1,11.8,20.1,12z"/>
		</g>
		<g transform="translate(38.204 51.82)">
			<path class="st1" d="M20.2,9.4L20.2,9.4C20.3,9.4,20.2,9.4,20.2,9.4l0.1,0.1l0.1,0.1l0,0l0,0c0,0,0,0,0,0.1s0,0,0,0.1l0,0l0,0
				l0,0l0,0v0.1V10l0,0l0,0c0,0.1,0,0.1,0,0.2v0.1l0,0c0,0.1,0,0.2,0.1,0.3c0.1,0,0.2,0,0.3-0.1c0.1-0.6-0.1-1.2-0.6-1.5
				c-0.1-0.1-0.2,0-0.3,0.1l0,0C20.1,9.2,20.1,9.3,20.2,9.4L20.2,9.4z"/>
		</g>
		<g transform="translate(37.884 45.417)">
			<path class="st1" d="M20.1,15.7c0.3,0.7,0.5,1.4,0.7,2.2c0,0.1,0.1,0.2,0.2,0.1c0.1,0,0.1,0,0.1-0.1c0.3-0.6,0.4-1.3,0.4-1.9
				c0.1-0.8,0.2-1.7,0.3-2.5c0.2-0.8,0.4-1.5,0.7-2.3c0.2-0.7,0.6-1.3,1.1-1.8c0.2-0.2-0.1-0.5-0.3-0.3c-1.1,0.9-1.5,2.6-1.8,3.8
				c-0.2,0.7-0.3,1.5-0.4,2.3c0,0.9-0.1,1.7-0.4,2.5c0.1,0,0.2,0,0.4,0c-0.2-0.8-0.4-1.5-0.7-2.3C20.4,15.2,20,15.4,20.1,15.7z"/>
		</g>
		<g transform="translate(42.592 41.539)">
			<path class="st1" d="M20.2,9.3c0.1,0,0.1-0.1,0.1-0.2C20.3,9,20.2,9,20.2,9c-0.1,0-0.1,0.1-0.1,0.2L20.2,9.3z"/>
		</g>
		<g transform="translate(39.475 37.756)">
			<path class="st1" d="M20.3,9.6c0.4,0,0.8-0.1,1.2-0.3c0.1,0,0.1-0.1,0.1-0.2C21.4,9,21.3,9,21.3,9l0,0c-0.3,0.1-0.7,0.2-1,0.3
				c-0.1,0-0.1,0.1-0.2,0.2C20.1,9.5,20.2,9.6,20.3,9.6z"/>
		</g>
		<g transform="translate(39.455 31.676)">
			<path class="st1" d="M20.3,15.4c1.6-0.6,3.1-1.5,4.4-2.6c0.7-0.4,1.3-1,1.9-1.5c0.6-0.6,0.8-1.5,1.3-2.1c-0.1,0-0.2-0.1-0.3-0.2
				c-0.1,0.3-0.3,0.6-0.4,0.9c-0.1,0.2,0.2,0.3,0.3,0.2c0.2-0.3,0.4-0.6,0.5-1c0-0.1,0-0.2-0.1-0.2h-0.1c-0.5,0.6-0.7,1.3-1.2,1.9
				c-0.6,0.6-1.2,1.2-1.9,1.7c-1.3,1-2.8,1.9-4.4,2.5C20,15.2,20.1,15.5,20.3,15.4z"/>
		</g>
		<g transform="translate(46.482 31.627)">
			<path class="st1" d="M20.8,9.1c-0.2,0.5-0.4,1.1-0.7,1.6c0,0.1,0,0.2,0.1,0.2s0.2,0,0.2-0.1c0.3-0.5,0.5-1.1,0.7-1.6
				C21.2,9,20.9,8.9,20.8,9.1z"/>
		</g>
		<g transform="translate(39.195 37.936)">
			<path class="st1" d="M20.3,9.6c0.4,0,0.8-0.1,1.1-0.3c0.1,0,0.1-0.1,0-0.2C21.4,9,21.3,9,21.2,9l0,0c-0.3,0.1-0.6,0.2-1,0.3
				c-0.1,0-0.1,0.1-0.2,0.2C20.1,9.5,20.2,9.6,20.3,9.6z"/>
		</g>
		<g transform="translate(39.025 38.269)">
			<path class="st1" d="M20.2,9.3h0.9c0.1,0,0.1-0.1,0.1-0.2C21.2,9,21.1,9,21.1,9h-0.9c-0.1,0-0.1,0.1-0.2,0.2
				C20.1,9.2,20.2,9.3,20.2,9.3z"/>
		</g>
		<g transform="translate(39.3 37.778)">
			<path class="st1" d="M20.3,9.6c0.3-0.1,0.5-0.3,0.8-0.4c0.1,0,0.1-0.1,0.1-0.2l0,0c-0.1,0-0.2,0-0.3,0c-0.3,0.1-0.5,0.3-0.8,0.4
				C20,9.4,20,9.5,20,9.6l0,0C20.2,9.6,20.3,9.7,20.3,9.6z"/>
		</g>
		<g transform="translate(39.036 37.616)">
			<path class="st1" d="M20.3,9.7c0.4-0.1,0.8-0.2,1.2-0.4c0.1,0,0.1-0.1,0-0.2C21.5,9,21.4,9,21.4,9l0,0c-0.4,0.2-0.8,0.3-1.2,0.4
				c-0.1,0-0.1,0.1-0.1,0.2l0,0C20.1,9.7,20.2,9.7,20.3,9.7z"/>
		</g>
		<g transform="translate(39.666 37.816)">
			<path class="st1" d="M20.3,9.7c0.3-0.1,0.6-0.2,0.9-0.4c0.1,0,0.1-0.1,0.1-0.2S21.1,9,21,9l0,0c-0.1,0.1-0.3,0.2-0.4,0.2l0,0l0,0
				h-0.1c-0.1,0-0.2,0.1-0.2,0.1c-0.1,0-0.1,0.1-0.1,0.2l0,0C20.1,9.7,20.2,9.7,20.3,9.7L20.3,9.7z"/>
		</g>
		<g transform="translate(40.008 35.633)">
			<path class="st1" d="M20.3,11.9c0.4-0.1,0.9-0.3,1.2-0.5c0.4-0.3,0.9-0.5,1.3-0.7c0.4-0.3,0.9-0.4,1.3-0.5c0.2,0,0.3,0,0.4-0.1
				c0.1-0.2,0.2-0.4,0.2-0.5s0-0.2-0.1-0.2h-0.1c-0.1,0.1-0.3,0.1-0.4,0.2l0.2,0.2c0.1-0.2,0.2-0.3,0.4-0.4C25,9.3,25,9.2,25,9.1
				C25,9,24.9,9,24.8,9c-0.3,0.1-0.5,0.3-0.6,0.5c0,0.1,0,0.2,0.1,0.2h0.1c0.1-0.1,0.3-0.1,0.4-0.2c-0.1-0.1-0.2-0.1-0.2-0.2
				c0,0.1-0.1,0.2-0.1,0.3c-0.1,0.1-0.1,0.1-0.2,0.1c-0.2,0-0.4,0-0.6,0.1c-0.4,0.1-0.7,0.3-1.1,0.5s-0.8,0.4-1.1,0.6
				c-0.4,0.3-0.8,0.4-1.3,0.5C20,11.6,20.1,11.9,20.3,11.9z"/>
		</g>
		<g transform="translate(42.229 35.06)">
			<path class="st1" d="M21.6,10.9c-0.6,0.9-1.1,1.8-1.3,2.8c-0.2,1.1-0.1,2.2,0.2,3.2c0,0.1,0.1,0.1,0.2,0.1c0,0,0.1,0,0.1-0.1
				c0.3-0.6,0.5-1.2,0.6-1.9c0.2-0.8,0.4-1.5,0.7-2.2c0.3-0.7,0.6-1.3,1-1.9c0.4-0.5,0.6-1.1,0.8-1.8c0-0.2-0.3-0.3-0.3-0.1
				c-0.2,0.7-0.5,1.3-0.9,1.9c-0.4,0.6-0.7,1.2-1,1.8s-0.5,1.2-0.6,1.9s-0.3,1.4-0.6,2.1c0.1,0,0.2,0,0.3,0c-0.3-1-0.4-2.1-0.2-3.2
				c0.3-0.9,0.7-1.8,1.3-2.6c0-0.1,0-0.2,0-0.2S21.6,10.8,21.6,10.9z"/>
		</g>
		<g transform="translate(43.062 35.307)">
			<path class="st1" d="M20.4,13.2c0.8-1.3,1.5-2.6,2-4.1c0.1-0.2-0.2-0.3-0.3-0.1c-0.5,1.4-1.1,2.8-1.9,4
				C20,13.2,20.3,13.4,20.4,13.2z"/>
		</g>
		<g transform="translate(38.263 20.664)">
			<path class="st1" d="M20.4,11.6c0.1-1,0.8-1.9,1.8-2.4c0.2-0.1,0-0.3-0.2-0.3c-1,0.5-1.8,1.4-1.9,2.5c0,0.1,0,0.2,0.1,0.2
				C20.3,11.8,20.4,11.7,20.4,11.6z"/>
		</g>
		<g transform="translate(47.941 18.176)">
			<path class="st1" d="M20.2,9.8c0.7,0.3,1.2,0.8,1.7,1.3c0.1,0.1,0.2,0.1,0.2,0c0,0,0,0,0-0.1c0-0.4-0.1-0.9-0.5-1.1
				C21.4,9.6,21,9.3,20.7,9c-0.1,0-0.2,0-0.2,0c0,0.1,0,0.2,0.1,0.2c0.3,0.2,0.6,0.5,0.8,0.8c0.2,0.2,0.5,0.6,0.4,0.9
				c0.1,0,0.2,0,0.3-0.1c-0.5-0.6-1.1-1-1.7-1.4c-0.1,0-0.2,0-0.2,0C20.1,9.7,20.1,9.8,20.2,9.8z"/>
		</g>
		<g transform="translate(47.979 17.977)">
			<path class="st1" d="M20.2,9.3c1.2,0.2,2.1,1.3,1.9,2.5c0,0.1,0,0.2-0.1,0.3c0.1,0,0.2,0,0.3-0.1c-0.1-0.2-0.2-0.4-0.3-0.7
				c-0.1-0.2-0.2-0.5-0.3-0.7c-0.3-0.4-0.7-0.7-1.2-0.9c0,0.1,0,0.2,0.1,0.3c0.1-0.1,0.2-0.1,0.2,0c0.1,0.1,0.3,0,0.2-0.2
				c-0.1-0.1-0.2-0.2-0.3-0.3c-0.2-0.1-0.3,0.1-0.2,0.3c0.1,0.1,0.2,0.1,0.2,0.2L21,9.8c-0.2-0.2-0.5-0.2-0.7,0
				c-0.1,0.1-0.1,0.2,0,0.2c0,0,0,0,0.1,0c0.7,0.2,1.2,0.8,1.4,1.5c0,0.2,0.1,0.4,0.3,0.6c0.1,0.1,0.1,0.1,0.2,0c0,0,0,0,0-0.1
				c0.4-1.3-0.5-2.7-1.8-3.1c-0.1,0-0.2,0-0.3-0.1C20.1,9,20,9.3,20.2,9.3z"/>
		</g>
		<g transform="translate(39.387 23.68)">
			<path class="st1" d="M28.6,9.2c-2,3.9-3.1,9.7-8.2,10.6c-0.5,0.1-0.3,0.8,0.2,0.7c5.4-0.9,6.5-6.9,8.7-10.9
				C29.5,9.1,28.8,8.7,28.6,9.2z"/>
		</g>
		<g transform="translate(38.649 28.178)">
			<path class="st1" d="M21.5,16.1c-0.8-2.1-0.8-4.5,0-6.6c0.2-0.5-0.6-0.7-0.7-0.2c-0.8,2.3-0.8,4.8,0,7
				C20.9,16.7,21.7,16.5,21.5,16.1z"/>
		</g>
		<g transform="translate(39.624 23.28)">
			<path class="st1" d="M21.1,13.1c-0.9,1.9-1.2,4.1-0.9,6.2c0.1,0.2,0.3,0.3,0.5,0.3c0.1,0,0.1,0,0.1-0.1c2.2-2.1,2.2-5.2,3.5-7.8
				c0.1-0.2,0-0.4-0.2-0.5s-0.4,0-0.5,0.1c-1.5,2.2-1.1,4.8-1.6,7.3c0,0.2,0.1,0.4,0.3,0.5c0.2,0,0.3,0,0.4-0.2
				c1.6-2.1,1.3-5,2.8-7.1c-0.2-0.1-0.5-0.1-0.7-0.2c-0.3,2.1-0.8,4.2-1.6,6.1c-0.1,0.3,0.3,0.6,0.6,0.4c3.1-1.9,2.4-6.1,4.7-8.6
				C28.8,9.1,28.3,8.6,28,9c-1,1.3-1.7,2.8-2.1,4.4c-0.5,1.5-1,3.2-2.4,4.1c0.2,0.1,0.4,0.3,0.6,0.4c0.8-2,1.3-4.2,1.6-6.3
				c0.1-0.4-0.5-0.5-0.7-0.2c-1.5,2.1-1.2,5-2.8,7.1c0.2,0.1,0.5,0.2,0.7,0.3c0.4-2.4,0.1-5,1.5-7.1c-0.2-0.1-0.4-0.3-0.7-0.4
				c-1.3,2.5-1.3,5.6-3.4,7.6c0.2,0.1,0.4,0.1,0.6,0.2c-0.3-1.9,0-3.9,0.8-5.7C21.9,13.1,21.3,12.7,21.1,13.1L21.1,13.1z"/>
		</g>
		<g transform="translate(40.234 23.975)">
			<path class="st1" d="M23.9,10.4c0.6-0.1,1.3,0,1.9-0.1S27,10,27.6,9.7L27,9.2c-1.1,1.5-1.3,3.3-1.6,5c-0.2,0.8-0.4,1.6-0.8,2.3
				c-0.5,0.7-1.1,1.3-1.8,1.8c-0.4,0.3-0.9,0.5-1.4,0.5c-0.2,0-0.3-0.2-0.4-0.4c-0.2-1-0.1-2,0.1-3c0.2-1.2,0.6-2.3,0.8-3.4
				c0.1-0.5-0.6-0.7-0.7-0.2c-0.3,1.1-0.6,2.2-0.8,3.4c-0.3,1.1-0.4,2.3-0.2,3.4c0.2,0.8,1,1.2,1.7,1c0.1,0,0.2-0.1,0.3-0.1
				c1.6-0.6,2.9-2,3.5-3.7c0.7-2,0.6-4.3,1.9-6.1c0.2-0.3-0.2-0.7-0.5-0.5c-0.5,0.3-1,0.5-1.6,0.5s-1.1,0-1.6,0.1
				C23.5,9.7,23.5,10.4,23.9,10.4z"/>
		</g>
		<g transform="translate(42.625 25.2)">
			<path class="st1" d="M20.3,9.5c0,0.1,0,0.1,0.1,0.2V9.6c0,0.1,0,0.2,0,0.4V9.9c0,0.1,0,0.2-0.1,0.3v-0.1c0,0.1-0.1,0.2-0.1,0.3
				s-0.1,0.2,0,0.3c0,0.1,0.1,0.2,0.2,0.2c0.1,0.1,0.2,0.1,0.3,0c0.1,0,0.2-0.1,0.2-0.2c0.3-0.4,0.4-1,0.2-1.5C21,9.1,20.8,9,20.6,9
				l0,0C20.4,9.1,20.2,9.3,20.3,9.5L20.3,9.5z"/>
		</g>
		<g transform="translate(27.507 82.879)">
			<path class="st1" d="M20.5,9.7c0.2,0,0.4-0.2,0.4-0.4S20.7,9,20.5,9s-0.4,0.2-0.4,0.4S20.3,9.7,20.5,9.7z"/>
		</g>
		<g transform="translate(33.995 82.819)">
			<path class="st1" d="M20.5,9.7c0.2,0,0.4-0.2,0.4-0.4S20.7,9,20.5,9s-0.4,0.2-0.4,0.4S20.3,9.7,20.5,9.7z"/>
		</g>
		<g transform="translate(40.205 25.396)">
			<path class="st1" d="M22.4,13.6c0.7-0.5,1.4-1,2.1-1.6c-0.1,0.1-0.2,0.2-0.3,0.2c0.2-0.1,0.3-0.2,0.5-0.3L24.3,12
				c0.1-0.1,0.3-0.1,0.4-0.1c0.4-0.1,0.7-0.4,0.9-0.7c0.2-0.4,0.3-0.8,0.2-1.2c-0.1-0.4-0.4-0.7-0.7-0.9L24.7,9c-0.3,0-0.5,0-0.8,0
				c-0.3,0.1-0.6,0.2-0.9,0.4s-0.6,0.4-0.8,0.6c-0.3,0.3-0.7,0.6-1,0.9c0.1-0.1,0.2-0.2,0.3-0.2c-0.2,0.1-0.4,0.3-0.6,0.4
				c-0.3,0.2-0.6,0.5-0.7,0.9s0,0.8,0.2,1.2c0.2,0.3,0.5,0.6,0.9,0.7c0.1,0,0.3,0,0.4,0C21.9,13.8,22.1,13.8,22.4,13.6L22.4,13.6z"
				/>
		</g>
		<g transform="translate(40.322 23.515)">
			<path class="st1" d="M21.5,13.2c1.2-2.1,3.8-2.5,6-2.7c0.4,0,0.7-0.3,0.8-0.8c0-0.4-0.3-0.7-0.8-0.8c-2.7,0.3-5.8,0.9-7.3,3.5
				c-0.2,0.4-0.1,0.8,0.3,1C20.9,13.6,21.3,13.5,21.5,13.2z"/>
		</g>
		<g transform="translate(46.605 24.129)">
			<path class="st1" d="M20.8,10.5c0.4,0,0.8-0.3,0.8-0.8S21.2,9,20.8,9S20,9.3,20,9.8S20.4,10.5,20.8,10.5z"/>
		</g>
		<g transform="translate(2.383 32.102)">
			<path class="st1" d="M20.7,9.7c0,1.1-0.1,2.2-0.3,3.3c-0.2,1-0.3,2.1-0.3,3.1c-0.1,2.2,0.1,4.4,0.5,6.6c0.5-0.1,1-0.3,1.5-0.4
				c-0.3-0.9-0.1-1.9,0.5-2.6c0.2-0.2,0.5-0.5,0.8-0.3c0.2,0.2,0.2,0.4,0.1,0.7c-0.2,0.4-0.1,0.8,0.3,1s0.8,0.1,1-0.3
				c0.5-0.9,0.2-2.1-0.7-2.7c-0.5-0.3-1-0.3-1.5-0.2c-1.9,0.6-2.4,3-2,4.7c0.2,1,1.6,0.5,1.5-0.4c-0.4-2.1-0.5-4.3-0.4-6.4
				c0.1-1.1,0.2-2.1,0.4-3.2c0.2-1,0.3-2,0.2-3C22.2,8.8,20.7,8.7,20.7,9.7z"/>
		</g>
		<g transform="translate(3.185 40.751)">
			<path class="st1" d="M20.2,10.1c0.1,0.1,0.1,0.2,0.2,0.3c0,0.1,0.1,0.2,0.2,0.2c0.1,0.1,0.2,0.1,0.3,0.1c0.1,0,0.2,0,0.3,0
				c0.1,0,0.2,0,0.3-0.1l0.1-0.1c0.1-0.1,0.2-0.2,0.2-0.3s0-0.1,0-0.2c0-0.1,0-0.3-0.1-0.4c-0.1-0.1-0.1-0.2-0.2-0.3
				c0-0.1-0.1-0.2-0.2-0.2C21.2,9.1,21.1,9,21,9s-0.2,0-0.3,0c-0.1,0-0.2,0-0.3,0.1l-0.1,0.1c-0.1,0.1-0.2,0.2-0.2,0.3s0,0.1,0,0.2
				C20.1,9.9,20.1,10,20.2,10.1z"/>
		</g>
		<g transform="translate(3.615 40.076)">
			<path class="st1" d="M20.1,9.7v0.2c0,0.1,0,0.2,0.1,0.3c0,0.1,0.1,0.2,0.2,0.2c0.1,0.1,0.2,0.1,0.2,0.2c0.1,0,0.2,0.1,0.3,0.1
				h0.2c0.1,0,0.2-0.1,0.3-0.2l0.1-0.2c0.1-0.1,0.1-0.2,0.1-0.4V9.7c0-0.1,0-0.2-0.1-0.3c0-0.1-0.1-0.2-0.2-0.2
				c-0.1-0.1-0.2-0.1-0.2-0.2c-0.1,0-0.2,0-0.3,0h-0.2c-0.1,0-0.2,0.1-0.3,0.2l-0.1,0.2C20.1,9.5,20.1,9.6,20.1,9.7z"/>
		</g>
		<g transform="translate(4.027 39.455)">
			<path class="st1" d="M20.5,10.4c2.6,1.4,2.3,4.9,2.8,7.5s0.9,5.3,2.3,7.5c0.6,0.9,1.3,1.7,2.1,2.4c0.9,0.6,1.8,1,2.8,1.3
				c0.6,0.3,0.8,1,1.2,1.5c0.4,0.4,0.8,0.7,1.2,1c0.5,0.3,1,0.6,1.4,0.9c0.6,0.6,1.1,1.3,1.4,2.1c0.5,0.8,1.8,0.1,1.3-0.8
				c-0.5-1.1-1.2-2-2.2-2.8c-0.5-0.4-1.2-0.6-1.7-1c-0.4-0.4-0.8-0.9-1.1-1.5c-0.7-0.9-1.9-0.9-2.8-1.4c-1.2-0.8-2.1-1.8-2.8-3.1
				c-1.3-2.6-1.7-5.7-2.1-8.6c-0.4-2.6-0.6-5-3.1-6.3C20.4,8.6,19.6,9.9,20.5,10.4z"/>
		</g>
		<g transform="translate(12.226 57.843)">
			<path class="st1" d="M20.2,10.1c0.3,0.6,0.7,1.1,1,1.7c0.1,0.2,0.3,0.3,0.5,0.3c0.2,0.1,0.4,0,0.6-0.1c0.4-0.2,0.5-0.7,0.3-1
				c-0.3-0.6-0.7-1.1-1-1.7C21.4,9.2,21.2,9.1,21,9s-0.4,0-0.6,0.1C20.1,9.3,20,9.8,20.2,10.1z"/>
		</g>
		<g transform="translate(13.778 57.768)">
			<path class="st1" d="M20.8,10.5c0.7,0,1.7,1.5,2.1,2c0.7,0.7,1.3,1.5,2,2.2c1.1,1.2,2.8,2.6,2.7,4.4c0,0.9,1.2,1,1.5,0.2
				c0.1-0.5,0.3-0.9,0.6-1.2c0.5-0.4,1.2-0.1,1.6,0.2c0.8,0.6,1.5,1.4,1.9,2.3c0.5,1,0.9,2.1,1.3,3.1c0.3,0.5,0.6,1,0.9,1.5
				c0.2,0.3,1,1.1,0.8,1.5l1.4,0.2c-0.5-1.4,0.3-2.7,1-3.9c-0.4-0.3-0.9-0.5-1.3-0.8v0.1c-0.7-0.6-1.8,0.4-1.1,1.1
				c0.6,0.6,1.5,0.6,2.1,0c0.1-0.1,0.2-0.2,0.3-0.4c0.2-0.4,0-0.8-0.3-1s-0.8-0.1-1,0.3c-0.9,1.5-1.8,3.3-1.2,5
				c0.2,0.5,1.1,0.8,1.4,0.2c0.7-1.6-0.7-2.7-1.4-4c-0.8-1.5-1.3-3.3-2.3-4.7c-0.8-1.3-2-2.1-3.5-2.3c-1.5-0.1-2.3,1.2-2.7,2.5
				c0.5,0.1,1,0.1,1.5,0.2c0.1-2.3-1.8-3.9-3.1-5.5c-0.9-1-1.8-2-2.7-3C22.6,9.9,21.9,9,20.8,9C19.9,9,19.9,10.5,20.8,10.5
				L20.8,10.5z"/>
		</g>
		<g transform="translate(22.761 63.122)">
			<path class="st1" d="M21.4,12.8c0.2-0.2,2.2,1.7,2.4,2c0.8,0.9,1.4,1.9,1.9,3.1c0.4,1,0.6,2.1,0.8,3.2c0,0.9,0.5,1.7,1.3,2.1
				c0.4,0.2,0.8,0.1,1-0.3c0.1-0.1,0.1-0.2,0.1-0.4c-0.2-2.5,0.5-4.9,2.1-6.8c0.5-0.7,2.5-2.8,3.2-1.2c0.4,0.8,0.2,1.7,1,2.3
				c0.3,0.3,0.8,0.3,1.1,0c0.1-0.1,0.2-0.3,0.2-0.5c0-1.3,0.4-2.5,1-3.6c0.2-0.4,2.6-3,2.9-1.8c0.1,0.4,0.6,0.6,1,0.5
				s0.6-0.5,0.5-0.9C41,8,38.5,9.1,37.3,10.2c-1.6,1.6-2.5,3.7-2.5,5.9c0.4-0.2,0.8-0.3,1.3-0.5c-0.5-0.4-0.4-1.3-0.7-1.9
				c-0.2-0.6-0.7-1-1.3-1.2c-1.4-0.5-2.7,0.4-3.7,1.3c-2.2,2.3-3.4,5.4-3.1,8.6c0.4-0.2,0.8-0.4,1.1-0.7c-0.5-0.3-0.5-1.1-0.6-1.6
				c-0.1-0.7-0.2-1.4-0.5-2.1c-0.4-1.2-1-2.3-1.7-3.4c-0.8-1.2-3.7-4.8-5.4-3.1C19.6,12.4,20.7,13.5,21.4,12.8L21.4,12.8z"/>
		</g>
		<g transform="translate(30.875 70.629)">
			<path class="st1" d="M20.8,10.5c0.4,0,0.8-0.3,0.8-0.8S21.2,9,20.8,9S20,9.3,20,9.8S20.4,10.5,20.8,10.5z"/>
		</g>
		<g transform="translate(29.943 65.652)">
			<path class="st1" d="M21.2,15.3c1-0.7,1.8-1.5,2.5-2.5c0.8-0.9,1.9-1.6,2.2-2.8c-0.4,0.1-0.8,0.2-1.3,0.3c0.6,0.6,1.2,1,2,1.3
				s1.6,0.2,2.3-0.3c0.4-0.2,0.5-0.7,0.3-1c-0.2-0.4-0.7-0.5-1-0.3c-0.8,0.6-1.8-0.3-2.4-0.8c-0.3-0.3-0.8-0.3-1.1,0
				c-0.1,0.1-0.2,0.2-0.2,0.3c-0.1,0.4-0.4,0.8-0.8,1.1c-0.4,0.4-0.8,0.7-1.1,1.1c-0.6,0.9-1.3,1.6-2.2,2.2
				C19.6,14.4,20.4,15.7,21.2,15.3L21.2,15.3z"/>
		</g>
		<g transform="translate(7.595 18.036)">
			<path class="st1" d="M21.7,10.5c0-0.3-0.1-0.5-0.1-0.8c0-0.1,0-0.2-0.1-0.3c0-0.1-0.1-0.2-0.2-0.2c-0.1-0.1-0.2-0.1-0.2-0.2
				c-0.1,0-0.2,0-0.3,0h-0.2c-0.1,0-0.2,0.1-0.3,0.2l-0.1,0.1c-0.1,0.1-0.1,0.2-0.1,0.4c0,0.3,0.1,0.5,0.1,0.8c0,0.1,0,0.2,0.1,0.3
				c0,0.1,0.1,0.2,0.2,0.2c0.1,0.1,0.2,0.1,0.2,0.2c0.1,0,0.2,0.1,0.3,0.1h0.2c0.1,0,0.2-0.1,0.3-0.2l0.1-0.1
				C21.7,10.8,21.7,10.6,21.7,10.5z"/>
		</g>
		<g transform="translate(5.553 2.614)">
			<path class="st1" d="M23.5,21.1c-1-2.2-1.6-4.6-1.9-7c-0.2-1.1,0-2.2,0.4-3.2c0.6-0.8,2.1-0.2,2.9,0.1c2.1,0.9,4.1,2.1,5.9,3.6
				c1,0.5,1.8,1.3,2.4,2.3c0.3,1,0.4,2.1,0.3,3.1c-0.1,1,1.4,1,1.5,0c0.1-2,0-4-1.6-5.4c-1.7-1.4-3.5-2.6-5.4-3.7
				c-0.9-0.6-1.9-1-2.8-1.4c-1-0.4-2-0.5-3-0.3c-2,0.5-2.1,3.2-2,4.9c0.3,2.6,0.9,5.1,2,7.5C22.4,22.4,23.9,22,23.5,21.1z"/>
		</g>
		<g transform="translate(19.354 9.683)">
			<path class="st1" d="M21.4,12.3c1.7-1.4,3.9-2,6-1.8c1.1,0,2.2,0.6,2.8,1.5c0.4,1,0.6,2.1,0.5,3.2c0,2.2-0.1,4.5,0.8,6.6
				c0.3,0.9,0.8,1.6,1.5,2.3c0.3,0.3,0.6,0.6,1,0.8c0.2,0.1,0.4,0.2,0.6,0.3c0.1,0.1,0.3,0.1,0.4,0.1c0.2,0.1,0.3,0.1,0.3-0.2
				c-0.4,0.9,0.9,1.6,1.3,0.8c0.3-0.4,0.2-1-0.1-1.4s-0.8-0.5-1.3-0.7c-1-0.5-1.8-1.4-2.2-2.4c-1.1-2.6-0.4-5.5-0.8-8.2
				c-0.1-1.2-0.7-2.3-1.5-3.1c-1-0.7-2.1-1.1-3.3-1.1c-2.5-0.2-5,0.6-7,2.2C19.6,11.9,20.7,12.9,21.4,12.3z"/>
		</g>
		<g transform="translate(28.393 10.151)">
			<path class="st1" d="M20.6,10.5c0.1,0,0.3,0.1,0.4,0.1c-0.1,0-0.1-0.1-0.2-0.1c0.1,0.1,0.3,0.1,0.4,0.2L21,10.6
				c0.1,0.1,0.2,0.2,0.3,0.3l-0.1-0.1c0.1,0.1,0.2,0.3,0.2,0.4c0-0.1,0-0.1-0.1-0.2l0.1,0.1c0.1,0.2,0.2,0.3,0.3,0.4
				c0.2,0.1,0.4,0.1,0.6,0.1c0.2-0.1,0.3-0.2,0.5-0.3S23,11,23,10.8c-0.3-0.9-1-1.6-2-1.8c-0.1,0-0.2,0-0.3,0c-0.1,0-0.2,0-0.3,0.1
				c-0.2,0.1-0.3,0.3-0.3,0.4c0,0.2,0,0.4,0.1,0.6C20.3,10.3,20.4,10.4,20.6,10.5L20.6,10.5z"/>
		</g>
		<g transform="translate(31.058 7.378)">
			<path class="st1" d="M20.8,12.2c2.4-0.3,5.6-1.2,7.7,0.4c1.9,1.4,2.8,3.9,5.1,4.9c0.8,0.3,2.4,0.8,2.9-0.2c0.2-0.5,0-1.1-0.4-1.3
				s-0.9-0.3-1.3-0.3c-1.1-0.3-2.1-1-2.9-1.9c-0.7-0.8-1.9-2.3-1-3.4c0.6-0.8-0.5-1.8-1.1-1.1c-1.3,1.7-0.5,3.7,0.7,5.2
				c0.6,0.8,1.4,1.4,2.2,2c0.4,0.2,0.8,0.4,1.2,0.6c0.2,0.1,0.4,0.1,0.7,0.2c0.1,0,0.3,0.1,0.4,0.1c0.2,0.1,0.3,0,0.1-0.1
				c0-0.2,0.1-0.4,0.1-0.6l-0.1,0.1c0.2-0.1,0.3-0.2,0.4-0.3c-1.4,0.4-2.8-1.1-3.5-2c-0.8-1.1-1.7-2.1-2.8-3
				c-2.4-1.8-5.8-0.9-8.5-0.6C19.9,10.8,19.9,12.3,20.8,12.2z"/>
		</g>
		<g transform="translate(37.31 0.276)">
			<path class="st1" d="M21,18.7c2.4-0.8,4.6-2.1,6.4-3.8c1-0.8,1.9-1.8,2.9-2.6c1-0.9,2.5-2.1,3.9-1.6c1.6,0.5,1,3,0.7,4.2
				c-0.3,1.4-0.6,2.8-0.7,4.2c-0.2,2.9,0.2,5.8,1.2,8.5c0.4-0.2,0.8-0.5,1.3-0.7c-0.3-0.3-0.4-0.7-0.3-1.1c0.1-1-1.4-1-1.5,0
				c-0.1,0.8,0.2,1.6,0.7,2.1s1.5,0,1.3-0.7c-1.2-3.1-1.5-6.5-0.9-9.8c0.4-2.3,2.1-6.6-0.9-8c-2.8-1.3-5.4,1.5-7.3,3.2
				c-2.2,1.9-4.4,3.9-7.2,4.8c-0.4,0.1-0.6,0.6-0.5,1C20.3,18.6,20.6,18.8,21,18.7z"/>
		</g>
		<g transform="translate(39.836 7.408)">
			<path class="st1" d="M20.5,11.4l0.6,0.4l0.1,0.1c0,0,0.2,0.1,0.1,0.1s0,0,0.1,0.1l0.1,0.1c0.1,0.1,0.1,0.1,0.2,0.2
				c0,0,0,0,0.1,0.1c-0.1-0.1-0.1-0.1-0.1-0.1l0.1,0.1c0,0,0,0.1,0.1,0.1c-0.1-0.1,0-0.1,0,0v0.1v-0.1v0.1c0,0.1,0,0.1,0-0.1
				c0.5,0.1,1,0.1,1.5,0.2c0-1,0-1.9,0-2.9c0-0.4-0.3-0.8-0.8-0.8s-0.8,0.3-0.8,0.8c-0.1,1-0.1,1.9,0,2.9c0,0.4,0.3,0.7,0.7,0.7
				c0.4,0.1,0.7-0.2,0.8-0.5c0.1-0.4,0-0.8-0.1-1.1c-0.1-0.2-0.3-0.5-0.5-0.6c-0.4-0.4-0.9-0.7-1.3-1c-0.2-0.1-0.4-0.1-0.6-0.1
				c-0.2,0.1-0.3,0.2-0.5,0.3C20,10.7,20.1,11.1,20.5,11.4z"/>
		</g>
		<g transform="translate(39.385 8.499)">
			<path class="st1" d="M20.8,10.5c0.4,0,0.8-0.3,0.8-0.8S21.2,9,20.8,9S20,9.3,20,9.8S20.4,10.5,20.8,10.5z"/>
		</g>
		<g transform="translate(41.405 6.913)">
			<path class="st1" d="M20.4,9.5c-0.3,0.7-0.4,1.4-0.3,2.2c0.1,0.7,0.3,1.3,0.5,2c0.3,1.3,1,2.4,1.8,3.4c0.7,0.7,1.7-0.4,1.1-1.1
				c-0.7-0.8-1.2-1.7-1.4-2.8c-0.2-0.5-0.3-1.1-0.4-1.6c-0.1-0.6,0-1.2,0.3-1.7c0-0.4-0.2-0.8-0.6-0.9S20.6,9.1,20.4,9.5z"/>
		</g>
		<g transform="translate(19.697 44.217)">
			<path class="st1" d="M20.6,10.5c0.1,0,0.1,0,0.2,0c0,0,0,0,0.1,0s-0.2-0.1,0,0c0,0,0.1,0,0.1,0.1c0,0,0.1,0.1,0,0s0,0,0,0
				l0.1,0.1c0,0,0,0,0,0.1c0.1,0.1-0.1-0.1,0,0s0.1,0.2,0.2,0.3c0,0.1,0-0.2,0-0.1v0.1c0,0.1,0,0.2,0.1,0.2v0.1c0,0,0,0.1,0,0
				s0,0,0,0v0.1c0,0.3,0,0.6,0,0.9c0,0.4,0.3,0.7,0.8,0.8c0.4,0,0.7-0.3,0.8-0.8c0.1-0.8,0-1.6-0.3-2.3c-0.4-0.5-1-0.9-1.7-1.1
				c-0.2,0-0.4,0-0.6,0.1s-0.3,0.3-0.3,0.5C20,9.9,20.2,10.3,20.6,10.5z"/>
		</g>
		<g transform="translate(25.994 46.445)">
			<path class="st1" d="M20.8,10.7c0.3,0,0.6-0.1,0.9-0.1c0.1,0,0.3,0,0.4,0s0.3-0.1,0.4,0c-0.1,0-0.1,0,0,0c-0.1,0-0.1-0.1-0.1,0
				c0.2,0.1-0.1-0.1,0,0s0.2,0.2,0.3,0.3c0.2,0.2,0.4,0.4,0.7,0.6c0.3,0.3,0.8,0.3,1.1,0c0.3-0.3,0.3-0.8,0-1.1l0,0l-0.7-0.7
				c-0.3-0.3-0.6-0.5-0.9-0.6s-0.7-0.1-1,0c-0.3,0-0.6,0.1-0.9,0.1c-0.2,0-0.4,0.1-0.5,0.2c-0.1,0.1-0.2,0.3-0.2,0.5
				C20.1,10.3,20.4,10.7,20.8,10.7z"/>
		</g>
		<g transform="translate(28.735 46.619)">
			<path class="st1" d="M21,10.6l0.3-0.1c-0.2,0,0,0,0,0c0.1,0,0.1,0,0.2,0c0.2,0,0.4,0,0.7,0c0,0,0.1,0,0.2,0c-0.1,0-0.1,0-0.1,0
				s0,0,0.1,0s0.2,0,0.3,0.1s0.2,0.1,0.3,0.1h0.1c0,0,0.3,0.1,0,0c0.2,0.1,0.4,0.1,0.6,0.1c0.2-0.1,0.3-0.2,0.5-0.3
				c0.2-0.4,0.1-0.8-0.3-1c-0.5-0.2-1.1-0.4-1.7-0.4c-0.5,0-1.1,0-1.6,0.1c-0.3,0-0.6,0.5-0.5,0.8C20.2,10.4,20.6,10.7,21,10.6z"/>
		</g>
		<g transform="translate(25.768 47.981)">
			<path class="st1" d="M20.2,10.1c0.3,0.6,0.8,1,1.2,1.5c0.3,0.2,0.5,0.4,0.8,0.6c0.2,0.2,0.5,0.3,0.8,0.4c0.3,0.1,0.6,0,0.9-0.2
				c0.2-0.3,0.3-0.7,0.2-1c-0.1-0.6-0.4-1.2-0.9-1.7c-0.6-0.5-1.3-0.7-2.1-0.5c-0.5,0.1-0.3,0.9,0.2,0.7c0.4-0.1,0.9,0,1.3,0.3
				s0.6,0.7,0.7,1.1c0.1,0.2,0.1,0.4,0.1,0.6c0,0.1,0,0,0,0s-0.1,0,0,0c0,0-0.1,0,0,0h-0.1l0,0h-0.1c-0.4-0.2-0.8-0.4-1.2-0.7
				c-0.4-0.4-0.8-0.8-1.1-1.3c-0.1-0.2-0.3-0.2-0.5-0.1C20.1,9.7,20.1,10,20.2,10.1z"/>
		</g>
		<g transform="translate(29.853 48.114)">
			<path class="st1" d="M20.4,12.4c0.5,0.1,1,0,1.5-0.3c0.4-0.3,0.7-0.7,1-1.1c0.1-0.2,0.3-0.4,0.4-0.6c0.2-0.2,0.2-0.5,0.2-0.8
				C23.4,9.2,23.1,9,22.8,9c-0.3,0-0.6-0.1-0.9,0c-0.2,0-0.4,0.2-0.4,0.4s0.2,0.4,0.4,0.4c0.2,0,0.4,0,0.7,0h0.2
				c0,0-0.2-0.2-0.1-0.2v0.1c-0.2,0.3-0.3,0.7-0.6,1c-0.2,0.3-0.4,0.5-0.7,0.8c-0.1,0.1-0.3,0.2-0.4,0.2s-0.3,0-0.4,0
				c-0.2-0.1-0.4,0.1-0.5,0.3C20.1,12.1,20.2,12.3,20.4,12.4z"/>
		</g>
		<g transform="translate(29.277 46.149)">
			<path class="st1" d="M20.5,9.7c0.2,0,0.4-0.2,0.4-0.4S20.7,9,20.5,9s-0.4,0.2-0.4,0.4S20.3,9.7,20.5,9.7z"/>
		</g>
		<g transform="translate(34.811 52.209)">
			<path class="st1" d="M20.6,9.9l0.7-0.2C21.2,9.5,21.1,9.3,21,9l-0.6,0.3c-0.1,0-0.1,0.1-0.2,0.2c0,0.1,0,0.2,0,0.3
				s0.1,0.1,0.2,0.2c0.1,0,0.2,0,0.3,0l0.6-0.3c0.1,0,0.1-0.1,0.2-0.2c0-0.1,0-0.2,0-0.2C21.4,9,21.3,9,21.1,9l-0.7,0.2
				c-0.1,0-0.2,0.1-0.2,0.2c-0.1,0.1-0.1,0.2,0,0.3c0,0.1,0.1,0.2,0.2,0.2C20.4,9.9,20.5,9.9,20.6,9.9z"/>
		</g>
		<g transform="translate(34.041 52.393)">
			<path class="st1" d="M20.7,10c0.4-0.3,0.9-0.4,1.4-0.2s0.9,0.5,1.2,0.9c0.1,0.2,0.1,0.4,0.1,0.6c0,0.3,0,0.6-0.1,0.9
				c-0.1,0.6-0.1,1.3-0.2,1.9c0.3,0,0.5,0.1,0.7,0.1c0.1-1,0.1-2.1,0-3.1c0-0.5-0.8-0.5-0.8,0c0.1,1,0.1,2.1,0,3.1
				c0,0.4,0.7,0.5,0.7,0.1c0.1-0.8,0.2-1.5,0.3-2.3c0-0.4,0.1-0.7,0.1-1.1c0-0.3-0.1-0.7-0.4-0.9c-0.4-0.5-0.9-0.8-1.5-1.1
				c-0.7-0.2-1.4,0-1.9,0.3c-0.2,0.1-0.2,0.3-0.1,0.5l0,0C20.3,10.1,20.5,10.1,20.7,10z"/>
		</g>
		<g transform="translate(34.636 53.379)">
			<path class="st1" d="M21.1,11.6C21,11.4,21,11.2,21,11s-0.1-0.3-0.1-0.5s0-0.4,0-0.5s0-0.2,0-0.3V9.6V9.5l0,0
				c0-0.2-0.1-0.4-0.3-0.5c-0.2-0.1-0.4,0.1-0.5,0.3C20,10.1,20,11,20.3,11.8c0.1,0.2,0.3,0.3,0.5,0.3C21,12,21.2,11.8,21.1,11.6
				L21.1,11.6z"/>
		</g>
		<g transform="translate(37.244 49.815)">
			<path class="st1" d="M20.9,10.6c0-0.2,0-0.4,0-0.6c0,0,0-0.1,0-0.2l0,0c0,0,0,0,0-0.1s0-0.2,0.1-0.3l-0.7,0.1
				c0.1,0.1,0.1,0.2,0.2,0.3l0.1,0.2v0.1v0.1c0,0,0,0,0,0.1v0.1C20.7,10.5,20.8,10.6,20.9,10.6c-0.1,0.1,0,0.2,0,0.4
				c0.2-0.1,0.5-0.2,0.7-0.3c-0.2-0.3-0.6-0.5-1-0.5c-0.4,0.1-0.6,0.5-0.5,0.8c0,0.1,0,0.1,0.1,0.1c0.1,0.2,0.3,0.2,0.5,0.1
				c0.2-0.1,0.2-0.3,0.1-0.5l0,0c0-0.1,0,0.1,0,0c0,0,0,0.1,0,0c0,0.1,0,0.1,0,0s0,0,0,0s0-0.1,0,0s0,0,0,0s-0.1,0,0,0l0,0l0,0
				c0.1,0-0.1,0,0,0s-0.1,0,0,0h0.1c0,0-0.1,0,0,0l0,0l0,0l0,0l0,0l0,0l0,0l0,0c0.1,0.2,0.3,0.2,0.5,0.2c0.2-0.1,0.3-0.3,0.2-0.4
				c-0.1-0.6-0.4-1.1-0.7-1.6C20.9,9,20.7,9,20.6,9s-0.3,0.1-0.3,0.3c-0.1,0.4-0.1,0.9-0.1,1.4c0,0.2,0.2,0.4,0.4,0.4
				C20.7,11,20.9,10.8,20.9,10.6z"/>
		</g>
		<g transform="translate(39.633 43.733)">
			<path class="st1" d="M20.8,11.8c0.2-0.4,0.5-0.8,0.9-1c0.2-0.2,0.4-0.3,0.7-0.3c0.3,0,0.5,0.2,0.7,0.2c0.3,0.1,0.6,0,0.8-0.3
				c0.1-0.2,0.2-0.5,0.1-0.8c-0.3-0.5-0.9-0.7-1.5-0.6c-0.6,0.1-1.1,0.6-1.3,1.1c0,0.2,0.1,0.4,0.3,0.4c0.2,0,0.4-0.1,0.4-0.2
				c0.1-0.3,0.4-0.5,0.7-0.6c0.2,0,0.3,0,0.5,0c0.1,0,0.1,0.1,0.2,0.1l0,0c0,0.1,0,0,0,0l0,0l0,0l0,0l0,0c0,0-0.1,0-0.2-0.1
				c-0.2-0.1-0.5-0.2-0.8-0.2c-0.5,0.1-1,0.3-1.3,0.6c-0.4,0.3-0.7,0.7-0.9,1.3c0,0.2,0.1,0.4,0.3,0.4C20.6,12.1,20.8,12,20.8,11.8
				L20.8,11.8z"/>
		</g>
		<g transform="translate(38.881 32.029)">
			<path class="st1" d="M20.6,15.6c1.7-0.6,3.3-1.5,4.7-2.5c1.4-0.9,2.5-2.2,3.3-3.7C28.7,9,28,8.8,27.8,9.2
				c-0.7,1.4-1.8,2.6-3.2,3.4c-1.3,0.9-2.8,1.7-4.3,2.3C19.9,15.1,20.1,15.8,20.6,15.6z"/>
		</g>
		<g transform="translate(42.005 31.861)">
			<path class="st1" d="M22.4,13.7c0.9-0.6,1.7-1.5,2.3-2.5c0.1-0.2,0-0.4-0.2-0.5s-0.4,0-0.5,0.1c-1.1,1.5-2,3.1-2.8,4.7
				c-0.9,1.4-1.2,3.1-1,4.7c0.1,0.2,0.3,0.3,0.5,0.3s0.3-0.2,0.3-0.4c0-1.1,0.3-2.1,0.8-3c0.4-0.9,0.9-1.7,1.4-2.5
				c1-1.6,1.8-3.3,2.4-5.1c0-0.2-0.1-0.4-0.3-0.4c-0.2,0-0.4,0.1-0.4,0.2c-0.6,1.9-1.5,3.7-2.6,5.4c-0.9,1.6-2.1,3.5-2,5.5
				c0.3,0,0.5-0.1,0.7-0.1c-0.4-1.6,0.4-3.2,1.2-4.6c0.8-1.4,1.6-2.8,2.6-4.2c-0.2-0.1-0.4-0.3-0.7-0.4c-0.5,0.9-1.3,1.7-2.2,2.3
				C21.5,13.5,22,14,22.4,13.7z"/>
		</g>
		<g transform="translate(38.652 17.61)">
			<path class="st1" d="M20.8,14.5c0.3-2.6,2.9-3.8,5.1-4.4c1.1-0.4,2.3-0.5,3.4-0.1c1,0.5,1.7,1.3,1.9,2.4c0.1,0.5,0.8,0.3,0.7-0.2
				c-0.3-1.2-1-2.2-2.1-2.8c-1.2-0.5-2.6-0.6-3.9-0.1c-2.7,0.7-5.5,2.2-5.9,5.2C20,15,20.8,15,20.8,14.5z"/>
		</g>
		<g transform="translate(38.686 25.148)">
			<path class="st1" d="M22.1,18.1c0.2-0.5,0.3-1.1,0.5-1.6c0.1-0.4-0.1-0.8-0.5-0.9c-0.3-0.1-0.6,0.1-0.8,0.3
				c-0.2,0.3-0.3,0.6-0.5,1l1.2-0.2c-0.8-1,0-2.4,0.6-3.3c0.5-0.7-0.6-1.5-1.2-0.9L20.9,13l1.2,0.1c-0.3-0.5,0.4-1.1,0.8-1.4
				c0.6-0.5,1.3-0.9,1.9-1.3c0.8-0.5,0.1-1.8-0.8-1.3c-1.6,0.9-4.4,2.7-3.2,4.8c0.2,0.4,0.7,0.5,1,0.3l0.1-0.1l0.4-0.5l-1.2-0.9
				c-1,1.5-1.7,3.5-0.4,5.1c0.3,0.3,0.8,0.3,1.1,0l0.1-0.1c0.2-0.3,0.3-0.6,0.5-1c-0.5-0.2-0.9-0.4-1.4-0.6
				c-0.2,0.5-0.3,1.1-0.5,1.6c-0.1,0.4,0.1,0.8,0.5,0.9C21.6,18.8,22,18.5,22.1,18.1L22.1,18.1L22.1,18.1z"/>
		</g>
		<g transform="translate(40.373 24.925)">
			<path class="st1" d="M21.6,17.4c-0.3-1.5,0.9-2.8,1.8-3.9c0.5-0.6,0.9-1.2,1.3-1.8c0.3-0.6,0.8-1,1.3-1.4
				c0.8-0.5,0.1-1.8-0.8-1.3c-0.7,0.4-1.3,1-1.7,1.7c-0.5,0.7-0.9,1.4-1.5,2c-1.2,1.4-2.3,3.1-1.9,5c0.1,0.4,0.5,0.6,0.9,0.5l0,0
				C21.5,18.2,21.7,17.8,21.6,17.4z"/>
		</g>
		<g transform="translate(41.12 26.629)">
			<path class="st1" d="M21.4,16.1c1.5-1.8,2.7-3.9,3.6-6.2c0-0.4-0.2-0.8-0.6-0.9s-0.8,0.1-0.9,0.5l0,0c-0.8,2-1.8,3.8-3.2,5.5
				c-0.3,0.3-0.3,0.8,0,1.1C20.6,16.4,21.1,16.4,21.4,16.1L21.4,16.1z"/>
		</g>
		<g transform="translate(39.351 31.335)">
			<path class="st1" d="M21.2,12.9c1.2-0.8,2.5-1.7,3.7-2.5c0.4-0.2,0.5-0.7,0.3-1s-0.7-0.5-1-0.3c-1.2,0.8-2.5,1.7-3.7,2.5
				c-0.4,0.2-0.5,0.7-0.3,1C20.4,13,20.9,13.1,21.2,12.9z"/>
		</g>
		<g transform="translate(21.575 30.626)">
			<path class="st1" d="M21.6,10.8v-1c0-0.2-0.1-0.4-0.2-0.5s-0.2-0.1-0.2-0.2C21,9,20.9,9,20.8,9c-0.2,0-0.4,0.1-0.5,0.2
				c-0.1,0.1-0.2,0.3-0.2,0.5v1c0,0.2,0.1,0.4,0.2,0.5s0.2,0.1,0.2,0.2c0.1,0,0.2,0.1,0.3,0.1c0.2,0,0.4-0.1,0.5-0.2
				C21.5,11.1,21.6,11,21.6,10.8z"/>
		</g>
		<g transform="translate(15.58 78.655)">
			<path class="st1" d="M22.8,34.3c1.1-2.6,3.7-4.2,5.4-6.4C30,25.5,32,23,32.7,20c0.3-1.6-1.9-2.7-2.7-1.2c-0.3,0.5-0.5,1-0.8,1.6
				c-0.4,0.7-0.1,1.6,0.6,2s1.6,0.1,2-0.5c1.1-1.4,1.6-3.1,1.6-4.9c0-0.8-0.7-1.5-1.6-1.5c-0.5,0-1,0.3-1.2,0.7
				c-0.3,0.5-0.4,1.1-0.5,1.7h3c0-1.1-0.1-2.3,0-3.4c0-0.6,0-1.1,0.1-1.7c0-0.3,0-0.6,0.1-0.8c0.2-0.4,0-0.5-0.6-0.4
				c-0.6-0.3-0.8-0.2-0.6,0.3c0,0.3,0.1,0.5,0.1,0.8c0,0.5,0,1-0.1,1.5c-0.2,1-0.5,2-1,2.9l2-0.5c-0.6-0.5-0.8-1.2-0.6-1.9
				c0.5-1.9-2.4-2.7-2.9-0.8c-0.5,2,0.3,4.1,2,5.3c0.7,0.4,1.6,0.2,2-0.5c0.9-1.6,1.4-3.4,1.5-5.2c0.1-1.5,0-3.9-1.8-4.4
				C29.2,8,30,15.8,30.1,18c0,0.8,0.7,1.5,1.5,1.5c0.8,0,1.5-0.7,1.5-1.5c0-0.1,0-0.1,0-0.2c-0.9-0.3-1.9-0.5-2.8-0.8
				c0,1.2-0.4,2.4-1.2,3.4c0.9,0.5,1.7,1,2.6,1.5c0.3-0.5,0.5-1,0.8-1.6c-0.9-0.4-1.8-0.8-2.7-1.2c-0.6,2.8-2.7,5.5-4.5,7.6
				c-1.8,2-4,3.5-5.1,6C19.5,34.6,22.1,36.1,22.8,34.3L22.8,34.3z"/>
		</g>
		<g transform="translate(15.12 83.274)">
			<path class="st1" d="M20.3,30.7c1.5,2.3,4.2,1.4,5.9-0.1c1.8-1.7,3-4.1,4.3-6.1c0.4-0.7,0.1-1.6-0.6-2.1c-0.5-0.2-1-0.2-1.5,0
				c-0.9,0.5-1.4,1.4-1.4,2.3c0,0.8,0.7,1.5,1.6,1.5c0.5,0,1-0.3,1.2-0.7c1.9-2.3,3.3-5,4.2-7.8c0.2-0.7,0.2-1.5,0.4-2.2
				c0.2-0.6,0.4-1.2,0.7-1.7c0.6-1.2,0.9-2.5,0.7-3.8c-0.2-0.8-1-1.3-1.8-1.1s-1.2,1.1-1,1.8c0.1,0.9-0.7,2-1,2.8
				c-0.5,1.2-0.5,2.4-0.8,3.6c-0.9,2.4-2.2,4.7-3.8,6.7c0.9,0.3,1.9,0.5,2.8,0.8c0,0.1-0.1,0.2-0.1,0.2l-2-2c-0.8,1.3-1.7,2.7-2.6,4
				c-0.4,0.5-0.8,1-1.2,1.4c-0.2,0.2-0.5,0.4-0.7,0.5c-0.1,0.1-0.3,0.1-0.4,0.2c-0.2,0-0.2,0,0,0C21.9,27.6,19.3,29.1,20.3,30.7z"/>
		</g>
		<g transform="translate(27.257 87.579)">
			<path class="st1" d="M21.5,12c0.8,0,1.5-0.7,1.5-1.5S22.4,9,21.5,9S20,9.7,20,10.5S20.7,12,21.5,12z"/>
		</g>
		<g transform="translate(31.933 78.597)">
			<path class="st1" d="M22.9,11.4c-0.5,0.6-1.1,0.7-1.5,0.3c-0.1-0.2-0.1-0.2,0,0c0,0.1,0.1,0.3,0.2,0.4c-0.1-0.2,0,0.2,0.1,0.2
				c0.1,0.2,0.1,0.4,0.2,0.6c0.1,0.3,0.1,0.6,0.2,0.9c0,0.2,0,0.2,0,0.1v0.3v0.4c0,0.7,0,1.4-0.1,2.1c-0.1,0.8-0.1,1.2-0.3,2
				c-0.2,0.8,0.2,1.6,1,1.9c0.8,0.2,1.6-0.2,1.9-1.1l0,0c0.4-2.1,0.5-4.3,0.2-6.4c-0.1-1-0.5-1.9-1-2.8c-0.5-1-1.8-1.4-2.8-0.9
				c-0.3,0.2-0.6,0.4-0.8,0.7c-0.4,0.7-0.2,1.6,0.5,2.1C21.6,12.3,22.5,12.1,22.9,11.4z"/>
		</g>
		<g transform="translate(31.624 80.238)">
			<path class="st1" d="M20.8,9.7c-1.5,2.9-0.3,5.8,0.3,8.8c0.1,0.7,0.1,1.5,0.3,2.2c0.1,0.6,0.4,1.1,0.8,1.6
				c0.6,0.8,1.6,1.5,1.7,2.4c0.9-0.4,1.8-0.8,2.7-1.2c-0.5-0.8-1.2-1.5-2.1-2c-0.7-0.4-1.6-0.1-2,0.6s-0.1,1.6,0.5,2
				c0.4,0.2,0.7,0.5,1,0.9c0.4,0.7,1.4,0.9,2.1,0.5c0.6-0.3,0.8-1,0.7-1.6c-0.3-1.1-0.9-2-1.7-2.8c-0.3-0.3-0.6-0.6-0.8-1
				c-0.1-0.5-0.2-1-0.2-1.6c-0.2-1.4-0.7-2.8-1-4.2c-0.3-1.1-0.2-2.2,0.2-3.2C24.3,9.6,21.7,8,20.8,9.7z"/>
		</g>
		<g transform="translate(39.622 97.449)">
			<path class="st1" d="M20.3,14.3c0.6,0.9,1.3,1.7,2,2.4c0.9,0.8,2.1,2,3.4,1.6c0.8-0.2,1.3-0.8,1.5-1.6c0.2-0.7,0.1-1.4-0.1-2
				c-0.2-0.5-0.5-1.1-0.8-1.5c-0.1-0.1-0.1-0.2-0.2-0.3L26,12.8c0.1,0,0.1,0.3,0,0.1c-0.1-0.3-0.2-0.6-0.3-0.9
				c-0.2-0.3-0.4-0.6-0.6-0.8s-0.5-0.4-0.8-0.6c0,0,0.2,0.2,0.1,0.1c-0.1-0.1-0.1-0.1-0.2-0.2c-0.1-0.1-0.2-0.2-0.3-0.3
				s-0.2-0.2-0.3-0.3l-0.1-0.1c-0.1-0.2,0.2,0.3,0,0S23,9.2,22.6,9.1c-0.4-0.1-0.8,0-1.2,0.2c-0.7,0.4-0.9,1.3-0.5,2.1
				c0.4,0.5,0.7,1,1.2,1.4c0.2,0.2,0.5,0.4,0.8,0.6c0,0,0.1,0,0.1,0.1c0.1,0.1,0.1,0.1-0.1-0.1l0.2,0.2c-0.1-0.2-0.2-0.2-0.1-0.1
				c0.1,0.1,0.1,0.1,0-0.1c0,0.1,0.1,0.2,0.1,0.3c0.1,0.3,0.3,0.6,0.4,0.9c0.1,0.2,0.3,0.4,0.4,0.6c0.1,0.1,0.2,0.2,0.2,0.3
				c-0.1-0.2-0.1-0.2,0,0c0,0.1,0,0.1,0.1,0.2c0,0.1,0.1,0.3,0.1,0.4c0-0.2,0-0.2,0-0.1s0,0.1,0,0.2c0-0.2,0-0.2,0-0.1
				c0-0.1,0.1-0.2,0.1-0.3c0.1-0.1,0.1-0.1,0,0c0.2-0.2,0.4-0.3,0.6-0.3c0.1,0,0.2,0,0.3,0.1c0,0-0.1,0-0.1-0.1
				c-0.1-0.1-0.5-0.3-0.1-0.1c-0.2-0.1-0.4-0.3-0.6-0.5c-0.4-0.3-0.7-0.7-1.1-1c-0.2-0.2-0.3-0.4-0.5-0.6c-0.2-0.3,0.2,0.3,0-0.1
				c-0.1-0.1-0.2-0.2-0.3-0.4c-0.4-0.7-1.3-0.9-2-0.5C20.1,12.7,19.9,13.6,20.3,14.3L20.3,14.3z"/>
		</g>
	</g>
</g>
<text transform="matrix(1 0 0 1 110.0237 91.8188)" class="st1 st3 st4">Napoles</text>
</svg>
