<?xml version="1.0" encoding="utf-8"?>
<!-- Generator: Adobe Illustrator 24.2.3, SVG Export Plug-In . SVG Version: 6.00 Build 0)  -->
<svg version="1.1" id="Capa_1" xmlns="http://www.w3.org/2000/svg" xmlns:xlink="http://www.w3.org/1999/xlink" x="0px" y="0px"
	 viewBox="0 0 50 50" style="enable-background:new 0 0 50 50;" xml:space="preserve">
<style type="text/css">
	.st0{stroke:#000000;stroke-miterlimit:10;}
	.st1{stroke:#000000;stroke-width:2;stroke-miterlimit:10;}
	.st2{fill:#E4E3E3;}
</style>
<g>
	<path class="st0" d="M11.7,3c0.7,0.1,1.3,0.1,2,0.2c2,0.3,3.3,2.2,2.8,4.1c-1.1,4.4-1.7,8.9-1.9,13.4c-0.2,3-0.2,6.1-0.4,9.1
		c0,0.2,0,0.3,0,0.6c2.7-2.2,5.4-4.3,8.1-6.5c-0.2-0.2-0.3-0.4-0.5-0.5c-1.1-1.2-1-2.6,0.3-3.6c2.1-1.6,4.2-3.3,6.3-4.9
		c2-1.6,4-3.1,6-4.7c1.4-1.1,2.8-0.9,3.8,0.5c1.5,2,1.1,4.8-0.9,6.4c-4.9,4-9.7,7.9-14.6,11.9c-2.7,2.2-5.5,4.5-8.2,6.7
		c-0.2,0.1-0.3,0.4-0.3,0.6c-0.1,0.4,0,0.8-0.1,1.2c-0.3,2.7-2.6,4.1-5.2,2.9c-0.4,0.5-0.8,1-1.1,1.6c-1.2,1.9-1.9,4-2,6.2
		c0,0.4-0.3,0.7-0.6,0.7c-0.3,0-0.6-0.3-0.6-0.7c0-1.4,0.4-2.8,0.9-4.1C6.1,42.5,7,41,8,39.7c-1-1.6-1-3.4-1.2-5.1
		C6.2,30.4,6,26.2,6.1,21.9c0-4.2,0.3-8.4,0.8-12.6C7,8.1,7.1,7,7.4,5.8C7.7,4.3,8.6,3.4,10,3.1c0.1,0,0.1,0,0.2-0.1
		C10.7,3,11.2,3,11.7,3z M7.3,21.9c0.1,2.6,0.1,5.3,0.3,7.9c0.2,2.6,0.6,5.2,0.9,7.8C8.6,38.4,9,39,9.8,39.4
		c1.6,0.7,3.3-0.5,3.2-2.3c-0.1-5.5-0.1-11,0.3-16.4c0.2-2.7,0.5-5.4,0.9-8.1c0.3-1.9,0.7-3.7,1.1-5.6c0.2-1.2-0.6-2.3-1.8-2.5
		c-1-0.1-2-0.2-3-0.2c-1.1,0-2,0.9-2.2,2c0.1,0.6,0,1.3-0.1,2C7.8,12.8,7.4,17.4,7.3,21.9z M14.2,34.4c0.2-0.1,0.3-0.2,0.4-0.3
		c3.8-3.1,7.6-6.2,11.4-9.3c3.5-2.9,7-5.7,10.5-8.6c1.6-1.3,2-2.9,1.1-4.5c-0.6-1.1-1.4-1.5-2.4-0.5c-0.7,0.6-1.4,1.1-2.1,1.7
		c-3.4,2.6-6.7,5.3-10.1,7.9c-0.7,0.5-0.7,1.2-0.2,1.8c0.2,0.3,0.4,0.5,0.6,0.8c0.6,0.7,0.5,0.9-0.2,1.4c-2.9,2.3-5.8,4.6-8.6,6.9
		c-0.1,0.1-0.3,0.3-0.3,0.5C14.2,32.9,14.2,33.6,14.2,34.4z"/>
	<path class="st0" d="M10.8,35.9c0.5,0,0.9,0.4,0.9,0.8c0,0.5-0.4,0.9-0.9,0.9S10,37.2,10,36.7C10,36.3,10.4,35.9,10.8,35.9z"/>
</g>
<path class="st1" d="M48,15C48,15,47.9,15,48,15c-1.3,1.1-2.6,2.1-3.8,3.1c-0.1,0.1-0.1,0.1-0.1,0.2c0.4,1.6,0.8,3.2,1.3,4.7v0.1
	c0,0-0.1,0-0.1-0.1c-1.4-0.9-2.7-1.8-4-2.7c-0.1,0-0.1,0-0.2,0c-1.3,0.9-2.7,1.8-4.1,2.7c0,0-0.1,0-0.1,0.1c0-0.1,0.1-0.2,0.1-0.3
	c0.4-1.5,0.8-3.1,1.2-4.6c0-0.1,0-0.1-0.1-0.1c-1.3-1-2.5-2.1-3.8-3.1c0,0,0,0-0.1-0.1c0.2,0,0.4,0,0.6,0c1.4-0.1,2.9-0.1,4.3-0.2
	c0.1,0,0.1,0,0.1-0.1c0.3-0.8,0.6-1.7,1-2.5c0.3-0.7,0.5-1.4,0.8-2.1V9.9c0.1,0.1,0.1,0.3,0.1,0.4c0.5,1.4,1.1,2.9,1.6,4.3
	c0,0.1,0.1,0.1,0.1,0.1c1.2,0.1,2.4,0.1,3.5,0.2C47.1,14.9,47.5,14.9,48,15z M35.7,15.4l0.1,0.1c1,0.8,2,1.6,2.9,2.4
	c0.1,0,0.1,0.1,0,0.1c-0.3,1.2-0.7,2.5-1,3.7v0.1c0,0,0.1,0,0.1-0.1c1.1-0.7,2.1-1.4,3.2-2.1c0.1,0,0.1,0,0.2,0
	c1.1,0.7,2.1,1.4,3.2,2.1c0,0,0.1,0,0.1,0.1c0-0.1,0-0.1,0-0.1c-0.3-1.2-0.7-2.5-1-3.7c0-0.1,0-0.1,0.1-0.2c1-0.8,2-1.6,2.9-2.4
	l0.1-0.1c-0.1,0-0.1,0-0.1,0c-1.3-0.1-2.5-0.1-3.8-0.2c-0.1,0-0.1,0-0.1-0.1c-0.4-1.2-0.9-2.4-1.3-3.6c0,0,0-0.1-0.1-0.1
	c0,0.1,0,0.1-0.1,0.2c-0.4,1.2-0.9,2.4-1.3,3.6c0,0.1-0.1,0.1-0.1,0.1c-0.2,0-0.3,0-0.5,0C38,15.3,36.9,15.3,35.7,15.4
	C35.8,15.4,35.8,15.4,35.7,15.4z"/>
<path class="st2" d="M35.7,15.4C35.8,15.4,35.8,15.4,35.7,15.4c1.2-0.1,2.3-0.1,3.4-0.2c0.2,0,0.3,0,0.5,0c0.1,0,0.1,0,0.1-0.1
	c0.4-1.2,0.9-2.4,1.3-3.6c0,0,0-0.1,0.1-0.2c0,0.1,0,0.1,0.1,0.1c0.4,1.2,0.9,2.4,1.3,3.6c0,0.1,0.1,0.1,0.1,0.1
	c1.3,0.1,2.5,0.1,3.8,0.2h0.1l-0.1,0.1c-1,0.8-2,1.6-2.9,2.4c-0.1,0-0.1,0.1-0.1,0.2c0.3,1.2,0.7,2.5,1,3.7v0.1c0,0-0.1,0-0.1-0.1
	c-1.1-0.7-2.1-1.4-3.2-2.1c-0.1,0-0.1,0-0.2,0c-1.1,0.7-2.1,1.4-3.2,2.1c0,0-0.1,0-0.1,0.1c0-0.1,0-0.1,0-0.1c0.3-1.2,0.7-2.5,1-3.7
	c0-0.1,0-0.1,0-0.1c-1-0.8-2-1.6-2.9-2.4C35.8,15.5,35.8,15.4,35.7,15.4z"/>
</svg>
