<?xml version="1.0" encoding="utf-8"?>
<!-- Generator: Adobe Illustrator 24.2.3, SVG Export Plug-In . SVG Version: 6.00 Build 0)  -->
<svg version="1.1" id="Capa_1" xmlns="http://www.w3.org/2000/svg" xmlns:xlink="http://www.w3.org/1999/xlink" x="0px" y="0px"
	 viewBox="0 0 99 100" style="enable-background:new 0 0 99 100;" xml:space="preserve">
<style type="text/css">
	.st0{fill:#FFFFFF;}
</style>
<path class="st0" d="M50.3,0c24.3,0,45,18.2,48.3,42.5c3.5,26-15,50.8-40.7,54.5c-10.2,1.5-19.9,0-29.2-4.5
	c-1.4-0.7-2.7-0.8-4.1-0.3c-7.4,2.5-14.9,4.9-22.4,7.2c-0.6,0.2-1.4,0.9-2,0.2c-0.5-0.5,0.1-1.2,0.3-1.8c2.4-7.1,4.7-14.2,7.2-21.2
	c0.6-1.8,0.5-3.2-0.4-4.9C-2,52.8-0.3,35,12.3,18.3C21,6.8,35.5,0,50.3,0z M12.8,87c0.7,0.4,1.2,0.1,1.7-0.1
	c3.8-1.2,7.7-2.4,11.5-3.7c1.3-0.4,2.3-0.3,3.5,0.4c8,4.7,16.6,6.5,25.9,5.5C77.1,86.6,93.2,66,90.4,43.9C87.4,21.3,67.3,5.7,45,8.6
	C15.5,12.4,0.2,45.7,16.3,70.9c0.9,1.4,1,2.5,0.5,4C15.4,78.9,14.1,83,12.8,87z"/>
<path class="st0" d="M26.4,38.6c0-4.4,1.4-7.6,3.9-10.2c3.1-3.3,7.7-2.5,9.4,1.7c0.9,2.1,1.7,4.3,2.7,6.4c1,2,0.7,3.8-0.8,5.4
	c-0.5,0.6-1,1.3-1.5,1.8c-1,1-1,1.9-0.3,3.1c3.7,6,8.8,10.5,15.3,13.2c1.4,0.6,2.3,0.3,3.2-0.8c0.9-1.2,2-2.3,2.8-3.6
	c0.9-1.3,2-1.7,3.5-1c2.9,1.4,5.8,2.8,8.8,4.2c1.3,0.6,1.8,1.6,1.7,3.2c-0.6,6.1-7,11-13.1,9.9c-12.2-2.4-21.9-8.8-29.1-19
	c-2.6-3.7-5.3-7.3-6.1-11.9C26.5,40,26.4,39,26.4,38.6z"/>
</svg>
