<?xml version="1.0" encoding="utf-8"?>
<!-- Generator: Adobe Illustrator 24.2.3, SVG Export Plug-In . SVG Version: 6.00 Build 0)  -->
<svg version="1.1" id="Capa_1" xmlns="http://www.w3.org/2000/svg" xmlns:xlink="http://www.w3.org/1999/xlink" x="0px" y="0px"
	 viewBox="0 0 50 50" style="enable-background:new 0 0 50 50;" xml:space="preserve">
<style type="text/css">
	.st0{stroke:#000000;stroke-miterlimit:10;}
	.st1{fill:#FFFFFF;}
	.st2{fill:#FFFFFF;stroke:#FFFFFF;stroke-miterlimit:10;}
</style>
<path class="st0" d="M2.1,21.4c0.2-2.1,2.2-4,4.4-4.1c0.5,0,0.9-0.2,1.3-0.4c4.2-2.7,8.9-4.4,13.9-4.9c7.5-0.7,14.4,0.9,20.7,5
	c0.2,0.2,0.5,0.3,0.8,0.3c2.4,0.1,4.3,1.7,4.7,4.1c0,0,0,0.1,0.1,0.1c0,0.3,0,0.6,0,0.9c-0.1,0.1,0,0.3-0.1,0.5c-0.2,2-2,3.8-4.1,4
	c-0.3,0-0.4,0.1-0.5,0.4c-0.9,7-6,12.6-12.8,14.5c-2.5,0.7-5.1,0.7-7.7,0.5c-7.1-0.6-12-4.2-15-10.6c-0.6-1.4-1-2.9-1.2-4.4
	c0-0.3-0.1-0.4-0.5-0.5c-2.1-0.2-3.9-2-4.1-4c-0.1-0.1,0-0.3-0.1-0.5c0-0.2,0-0.4,0-0.5C2.1,21.7,2,21.5,2.1,21.4z"/>
<path class="st1" d="M41.7,22.6c0,1.4,0.1,3-0.2,4.6c-0.8,5.2-3.6,9.1-8.2,11.6c-2.2,1.2-4.6,1.7-7.1,1.8c-2.1,0-4.2,0.1-6.3-0.5
	C13.6,38.2,9.8,34,8.5,27.5c-0.2-0.9-0.2-1.8-0.2-2.7c0-1.9,0-3.9,0-5.8c0-0.3,0.1-0.4,0.3-0.6c3.9-2.5,8.2-4.1,12.9-4.7
	c7.2-0.8,13.9,0.8,20,4.7c0.2,0.1,0.3,0.2,0.2,0.5C41.7,20.1,41.7,21.2,41.7,22.6z"/>
<path class="st2" d="M6.5,19.1c0,1.9,0,3.9,0,5.8c0,0.4-0.2,0.2-0.4,0.2c-1.2-0.3-2.1-1.3-2.3-2.5c-0.2-1.3,0.3-2.3,1.4-3
	C5.6,19.3,6,19.1,6.5,19.1z"/>
<path class="st2" d="M43.5,19.1c1.5,0.2,2.6,1.4,2.7,2.9c0.1,1.5-1,2.8-2.4,3.1c-0.1,0-0.3,0.2-0.3-0.2C43.5,23,43.5,21,43.5,19.1z"
	/>
<path class="st0" d="M36.9,23.5c0,0.8-0.8,1.2-1.4,0.8c-0.9-0.6-1.9-1.1-2.9-1.5c-6.1-2.4-11.9-2-17.6,1.2c-0.2,0.1-0.3,0.2-0.5,0.3
	c-0.5,0.3-1,0.1-1.2-0.3c-0.3-0.4-0.2-0.9,0.3-1.2c0.8-0.5,1.6-1,2.5-1.4c6.9-3,13.6-2.6,20.1,1.2C36.6,22.9,36.8,23.1,36.9,23.5z"
	/>
<path class="st0" d="M24.9,25.6c3.2,0,6,0.8,8.5,2.4c0.4,0.2,0.6,0.5,0.5,1c-0.1,0.4-0.3,0.7-0.7,0.7c-0.3,0.1-0.5-0.1-0.8-0.2
	c-2-1.3-4.3-2-6.7-2.1c-2.9-0.2-5.6,0.5-8.1,2c-0.2,0.1-0.5,0.3-0.8,0.3c-0.4-0.1-0.7-0.3-0.8-0.7c-0.1-0.4,0.1-0.8,0.4-1
	c1.3-0.8,2.6-1.4,4-1.8c0.7-0.2,1.4-0.4,2.2-0.5C23.5,25.6,24.3,25.6,24.9,25.6z"/>
</svg>
