<?xml version="1.0" encoding="utf-8"?>
<!-- Generator: Adobe Illustrator 24.2.3, SVG Export Plug-In . SVG Version: 6.00 Build 0)  -->
<svg version="1.1" id="Capa_1" xmlns="http://www.w3.org/2000/svg" xmlns:xlink="http://www.w3.org/1999/xlink" x="0px" y="0px"
	 viewBox="0 0 50 50" style="enable-background:new 0 0 50 50;" xml:space="preserve">
<style type="text/css">
	.st0{fill:#FFFFFF;}
</style>
<g>
	<path class="st0" d="M28.4,15.9c3.1,0,6.2,0,9.3,0c1.2,0,2,0.7,2,1.9c0,1.2-0.8,1.9-2,1.9c-6.2,0-12.4,0-18.6,0
		c-1.1,0-1.8-0.6-1.9-1.6c-0.1-1,0.4-1.9,1.3-2.2c0.2-0.1,0.5-0.1,0.7-0.1C22.2,15.9,25.3,15.9,28.4,15.9z"/>
	<path class="st0" d="M28.4,34.2c-3.1,0-6.2,0-9.3,0c-0.8,0-1.4-0.3-1.7-1c-0.4-0.7-0.3-1.4,0.1-2.1c0.4-0.6,1-0.8,1.7-0.8
		c4.2,0,8.3,0,12.5,0c2.1,0,4.2,0,6.2,0c1,0,1.7,0.7,1.8,1.7c0.1,1-0.4,1.9-1.3,2.1c-0.2,0.1-0.5,0.1-0.7,0.1
		C34.6,34.2,31.5,34.2,28.4,34.2z"/>
	<path class="st0" d="M28.4,27c-3.1,0-6.2,0-9.3,0c-0.8,0-1.3-0.3-1.7-0.9c-0.4-0.7-0.4-1.4,0.1-2.1c0.4-0.6,0.9-0.8,1.7-0.8
		c4.3,0,8.6,0,12.9,0c1.9,0,3.8,0,5.7,0c1.2,0,2,0.8,2,1.9c0,1.2-0.8,2-2,2C34.6,27,31.5,27,28.4,27z"/>
	<path class="st0" d="M12.9,20.3c-1.4,0-2.5-1.1-2.4-2.5c0-1.4,1.1-2.4,2.5-2.4c1.4,0,2.5,1.1,2.5,2.5
		C15.4,19.2,14.2,20.3,12.9,20.3z"/>
	<path class="st0" d="M12.9,22.6c1.4,0,2.5,1.1,2.5,2.5c0,1.4-1.1,2.5-2.5,2.4c-1.4,0-2.4-1.1-2.4-2.4
		C10.4,23.7,11.5,22.6,12.9,22.6z"/>
	<path class="st0" d="M10.4,32.3c0-1.4,1.1-2.5,2.5-2.4c1.3,0,2.4,1.1,2.4,2.5c0,1.4-1.1,2.5-2.5,2.5C11.5,34.7,10.4,33.6,10.4,32.3
		z"/>
</g>
</svg>
