<?xml version="1.0" encoding="utf-8"?>
<!-- Generator: Adobe Illustrator 24.2.3, SVG Export Plug-In . SVG Version: 6.00 Build 0)  -->
<svg version="1.1" id="Capa_1" xmlns="http://www.w3.org/2000/svg" xmlns:xlink="http://www.w3.org/1999/xlink" x="0px" y="0px"
	 viewBox="0 0 50 50" style="enable-background:new 0 0 50 50;" xml:space="preserve">
<style type="text/css">
	.st0{fill:#FFFFFF;}
</style>
<g>
	<path class="st0" d="M21.1,24.5c-0.2,0.2-0.4,0.4-0.6,0.6c-0.8,0.8-1.6,1.6-2.4,2.3c-0.9,0.8-1.7,1.6-2.6,2.4
		c-0.8,0.8-1.6,1.6-2.4,2.3c-0.9,0.8-1.7,1.6-2.6,2.4c-0.8,0.8-1.6,1.6-2.4,2.3c-0.8,0.8-1.7,1.6-2.5,2.4c-1.3,1.2-0.9,3.3,0.3,4.1
		c1.1,0.7,2.5,0.7,3.5-0.1c0.5-0.4,1-0.9,1.5-1.4c0.9-0.8,1.7-1.6,2.6-2.5c0.8-0.8,1.6-1.5,2.4-2.3c0.9-0.8,1.7-1.6,2.6-2.5
		c0.8-0.8,1.6-1.5,2.4-2.3c0.9-0.9,1.8-1.7,2.7-2.6c0.5-0.5,1-1,1.6-1.5c0.7,0.6,1.4,1.3,2,1.9c0.9,0.9,1.8,1.8,2.8,2.6
		c0.7,0.7,1.5,1.4,2.2,2.1c0.9,0.9,1.8,1.7,2.7,2.6c0.8,0.7,1.6,1.5,2.3,2.2c1,0.9,1.9,1.8,2.9,2.7c0.7,0.6,1.4,1,2.3,0.9
		c1.5-0.1,2.8-1.4,2.6-3c-0.1-0.3-0.1-0.7-0.4-1c-0.4-0.5-0.9-1-1.4-1.5c-0.8-0.8-1.7-1.6-2.5-2.4c-0.8-0.8-1.7-1.6-2.5-2.4
		c-0.8-0.8-1.7-1.6-2.5-2.4c-0.8-0.8-1.7-1.6-2.5-2.4c-0.7-0.7-1.4-1.3-2-2c-0.5-0.5-1-0.9-1.4-1.4c-0.2-0.2-0.4-0.3-0.6-0.5
		c0.2-0.2,0.4-0.4,0.6-0.6c0.8-0.8,1.6-1.5,2.4-2.3c0.9-0.8,1.8-1.7,2.7-2.5c0.8-0.7,1.6-1.5,2.3-2.2c0.9-0.8,1.7-1.7,2.6-2.5
		c0.8-0.8,1.6-1.5,2.4-2.3c0.9-0.8,1.7-1.6,2.6-2.4c1.3-1.2,1.1-3.5-0.8-4.4c-1.1-0.5-2.3-0.3-3.3,0.7c-0.9,0.8-1.7,1.7-2.6,2.5
		c-0.8,0.8-1.6,1.5-2.4,2.3c-0.9,0.8-1.7,1.7-2.6,2.5c-0.8,0.8-1.6,1.5-2.4,2.3c-0.9,0.8-1.7,1.7-2.6,2.5c-0.7,0.7-1.4,1.4-2.1,2.1
		c-0.2,0.2-0.5,0.4-0.7,0.7c-0.3-0.2-0.5-0.5-0.8-0.7c-0.8-0.8-1.6-1.6-2.4-2.3c-0.8-0.8-1.7-1.6-2.5-2.4c-0.8-0.8-1.6-1.6-2.5-2.4
		c-0.8-0.8-1.7-1.6-2.5-2.4c-0.8-0.8-1.6-1.6-2.5-2.4c-0.7-0.6-1.3-1.3-2-1.9C9.6,5.9,9.4,5.8,9.3,5.7C8.3,4.9,6.7,4.8,5.5,6
		c-0.9,0.9-0.9,2.7,0,3.6C6,10.1,6.5,10.6,7,11c0.9,0.8,1.7,1.6,2.6,2.5c0.8,0.8,1.6,1.5,2.4,2.3c0.9,0.8,1.7,1.6,2.6,2.4
		c0.8,0.8,1.6,1.6,2.4,2.3c1.1,1.1,2.3,2.2,3.4,3.3C20.6,24.1,20.8,24.2,21.1,24.5z"/>
	<path class="st0" d="M21.1,24.5c-0.2-0.2-0.5-0.4-0.7-0.6c-1.1-1.1-2.3-2.2-3.4-3.3c-0.8-0.8-1.6-1.6-2.4-2.3
		c-0.9-0.8-1.7-1.6-2.6-2.4c-0.8-0.8-1.6-1.5-2.4-2.3C8.7,12.7,7.9,11.8,7,11c-0.5-0.5-1-0.9-1.5-1.4C4.6,8.7,4.6,6.9,5.5,6
		c1.2-1.2,2.8-1.1,3.8-0.3c0.2,0.1,0.3,0.3,0.5,0.4c0.7,0.6,1.3,1.3,2,1.9c0.8,0.8,1.6,1.6,2.5,2.4c0.8,0.8,1.7,1.6,2.5,2.4
		c0.8,0.8,1.6,1.6,2.5,2.4c0.8,0.8,1.7,1.6,2.5,2.4c0.8,0.8,1.6,1.6,2.4,2.3c0.3,0.2,0.5,0.5,0.8,0.7c0.2-0.2,0.5-0.4,0.7-0.7
		c0.7-0.7,1.4-1.4,2.1-2.1c0.9-0.8,1.7-1.7,2.6-2.5c0.8-0.8,1.6-1.5,2.4-2.3c0.9-0.8,1.7-1.7,2.6-2.5c0.8-0.8,1.6-1.5,2.4-2.3
		c0.9-0.8,1.7-1.7,2.6-2.5c1-1,2.3-1.1,3.3-0.7c1.9,0.9,2,3.2,0.8,4.4c-0.9,0.8-1.7,1.6-2.6,2.4c-0.8,0.8-1.6,1.5-2.4,2.3
		c-0.9,0.8-1.7,1.7-2.6,2.5c-0.8,0.7-1.6,1.5-2.3,2.2c-0.9,0.8-1.8,1.7-2.7,2.5c-0.8,0.8-1.6,1.5-2.4,2.3c-0.2,0.2-0.4,0.4-0.6,0.6
		c0.2,0.2,0.4,0.3,0.6,0.5c0.5,0.5,1,0.9,1.4,1.4c0.7,0.7,1.3,1.3,2,2c0.8,0.8,1.7,1.6,2.5,2.4c0.8,0.8,1.7,1.6,2.5,2.4
		c0.8,0.8,1.7,1.6,2.5,2.4c0.8,0.8,1.7,1.6,2.5,2.4c0.5,0.5,1,0.9,1.4,1.5c0.2,0.3,0.3,0.7,0.4,1c0.2,1.6-1.1,2.9-2.6,3
		c-0.9,0-1.7-0.3-2.3-0.9c-0.9-0.9-1.9-1.8-2.9-2.7c-0.8-0.7-1.6-1.5-2.3-2.2c-0.9-0.9-1.8-1.7-2.7-2.6c-0.7-0.7-1.5-1.4-2.2-2.1
		c-0.9-0.9-1.8-1.8-2.8-2.6c-0.7-0.6-1.3-1.2-2-1.9c-0.5,0.5-1.1,1-1.6,1.5c-0.9,0.9-1.8,1.7-2.7,2.6c-0.8,0.8-1.6,1.5-2.4,2.3
		c-0.9,0.8-1.7,1.6-2.6,2.5c-0.8,0.8-1.6,1.5-2.4,2.3c-0.9,0.8-1.7,1.6-2.6,2.5c-0.5,0.5-1,0.9-1.5,1.4c-1,0.8-2.4,0.9-3.5,0.1
		c-1.2-0.8-1.6-2.8-0.3-4.1c0.8-0.8,1.7-1.6,2.5-2.4c0.8-0.8,1.6-1.6,2.4-2.3c0.9-0.8,1.7-1.6,2.6-2.4c0.8-0.8,1.6-1.6,2.4-2.3
		c0.9-0.8,1.7-1.6,2.6-2.4c0.8-0.8,1.6-1.6,2.4-2.3C20.6,24.8,20.8,24.7,21.1,24.5z"/>
</g>
</svg>
